<?xml version="1.0" encoding="utf-8"?>
<!-- Generator: Adobe Illustrator 18.1.1, SVG Export Plug-In . SVG Version: 6.00 Build 0)  -->
<!DOCTYPE svg PUBLIC "-//W3C//DTD SVG 1.1//EN" "http://www.w3.org/Graphics/SVG/1.1/DTD/svg11.dtd">
<svg version="1.1" id="Layer_1" xmlns="http://www.w3.org/2000/svg" xmlns:xlink="http://www.w3.org/1999/xlink" x="0px" y="0px"
	 width="216px" height="216px" viewBox="0 0 216 216" enable-background="new 0 0 216 216" xml:space="preserve">
<path d="M134.3,134.1V196h61.9v-61.9H134.3z M188.3,188.1h-46v-19.6l11.6,11.6c0.5,0.5,1.2,0.8,1.9,0.8s1.4-0.3,1.9-0.8
	c1-1,1-2.7,0-3.8L142.4,161v-15.1l30.2,30.2c0.5,0.5,1.2,0.8,1.9,0.8s1.4-0.3,1.9-0.8c1-1,1-2.7,0-3.8L146,142.1h15.1l15.3,15.3
	c0.5,0.5,1.2,0.8,1.9,0.8s1.4-0.3,1.9-0.8c1-1,1-2.7,0-3.8L168.6,142h19.6v46.1H188.3z M155.5,65c0.5,0,1-0.2,1.4-0.6l2.8-2.8
	c0.8-0.8,0.8-2,0-2.8s-2.1-0.8-2.8,0l-2.8,2.8c-0.8,0.8-0.8,2.1,0,2.8C154.5,64.8,155,65,155.5,65z M144.9,75.6c0.5,0,1-0.2,1.4-0.6
	l2.8-2.8c0.8-0.8,0.8-2.1,0-2.8c-0.8-0.8-2-0.8-2.8,0l-2.8,2.8c-0.8,0.8-0.8,2,0,2.8C143.9,75.4,144.4,75.6,144.9,75.6z M134.3,86.2
	c0.5,0,1-0.2,1.4-0.6l2.8-2.8c0.8-0.8,0.8-2,0-2.8s-2.1-0.8-2.8,0l-2.8,2.8c-0.8,0.8-0.8,2,0,2.8C133.3,86,133.8,86.2,134.3,86.2z
	 M176.8,43.7c0.5,0,1-0.2,1.4-0.6l2.8-2.8c0.8-0.8,0.8-2.1,0-2.8c-0.8-0.8-2-0.8-2.8,0l-2.8,2.8c-0.8,0.8-0.8,2,0,2.8
	C175.7,43.5,176.2,43.7,176.8,43.7z M187.4,33.1c0.5,0,1-0.2,1.4-0.6l2.8-2.8c0.8-0.8,0.8-2,0-2.8s-2.1-0.8-2.8,0l-2.8,2.8
	c-0.8,0.8-0.8,2.1,0,2.8C186.3,32.9,186.9,33.1,187.4,33.1z M166.2,54.3c0.5,0,1-0.2,1.4-0.6l2.8-2.8c0.8-0.8,0.8-2,0-2.8
	s-2.1-0.8-2.8,0l-2.8,2.8c-0.8,0.8-0.8,2,0,2.8C165.1,54.2,165.6,54.3,166.2,54.3z M33.7,181.9l-2.8,2.8c-0.8,0.8-0.8,2,0,2.8
	c0.4,0.4,0.9,0.6,1.4,0.6c0.5,0,1-0.2,1.4-0.6l2.8-2.8c0.8-0.8,0.8-2,0-2.8C35.8,181.1,34.5,181.1,33.7,181.9z M23.1,192.5l-2.8,2.8
	c-0.8,0.8-0.8,2,0,2.8c0.4,0.4,0.9,0.6,1.4,0.6s1-0.2,1.4-0.6l2.8-2.8c0.8-0.8,0.8-2,0-2.8C25.2,191.8,23.9,191.8,23.1,192.5z
	 M88.7,147.9l-15.8,15.8c-0.8,0.8-0.8,2,0,2.8c0.4,0.4,0.9,0.6,1.4,0.6s1-0.2,1.4-0.6l15.8-15.8c0.8-0.8,0.8-2,0-2.8
	C90.7,147.1,89.5,147.1,88.7,147.9z M41.1,155.2l28.7-28.7c0.8-0.8,0.8-2,0-2.8s-2-0.8-2.8,0l-28.7,28.7c-0.8,0.8-0.8,2,0,2.8
	c0.4,0.4,0.9,0.6,1.4,0.6S40.7,155.6,41.1,155.2z M82.9,20.8H21v61.9h61.9V20.8z M29,28.7h46v19.6L63.4,36.8c-1-1-2.7-1-3.8,0
	s-1,2.7,0,3.8L75,55.9V71L44.8,40.8c-1-1-2.7-1-3.8,0s-1,2.7,0,3.8l30.2,30.2H56.1L40.8,59.4c-1-1-2.7-1-3.8,0s-1,2.7,0,3.8
	l11.6,11.6H29V28.7z M108.6,78.7c-15,0-27.5,11.2-29.4,25.7l0,0H47.3c-2.2,0-4,1.8-4,4s1.8,4,4,4h31.9c0.6,4.3,2.1,8.2,4.2,11.7
	c0.4,0.6,0.7,1.1,1.1,1.7L40,168.2c-1.6,1.5-1.7,4-0.1,5.7c0.8,0.8,1.8,1.2,2.9,1.2c1,0,2-0.4,2.8-1.1l44.5-42.4
	c0.5,0.4,1.1,0.8,1.6,1.2c3.8,2.6,8.2,4.4,12.9,5l0,0v29c0,2.2,1.8,4,4,4s4-1.8,4-4v-29l0,0c14.5-2,25.7-14.4,25.7-29.4
	C138.3,92,125,78.7,108.6,78.7z M118.3,127.8l-10.5-10.4l-5.7,5.4l7.3,7.3c-0.3,0-0.6,0-0.9,0c-4,0-7.8-1.1-11-3
	c-0.6-0.3-1.2-0.7-1.7-1.1l4.8-4.6l5.7-5.4l4.9-4.7c1.6-1.5,1.7-4,0.1-5.7c-1.5-1.6-4-1.7-5.6-0.1l-5.1,4.8l-5.7,5.4l-4.7,4.5
	c-0.4-0.6-0.7-1.2-1-1.8c-1.6-3-2.5-6.4-2.5-10c0-0.3,0-0.5,0-0.8l6.8,6.7l5.7-5.4l-10-10.1c3.5-7.2,10.9-12.1,19.5-12.1
	c12,0,21.7,9.7,21.7,21.7C130.3,116.9,125.5,124.3,118.3,127.8z"/>
</svg>
