<?xml version="1.0" encoding="utf-8"?>
<!-- Generator: Adobe Illustrator 18.1.1, SVG Export Plug-In . SVG Version: 6.00 Build 0)  -->
<!DOCTYPE svg PUBLIC "-//W3C//DTD SVG 1.1//EN" "http://www.w3.org/Graphics/SVG/1.1/DTD/svg11.dtd">
<svg version="1.1" id="Layer_1" xmlns="http://www.w3.org/2000/svg" xmlns:xlink="http://www.w3.org/1999/xlink" x="0px" y="0px"
	 width="216px" height="216px" viewBox="0 0 216 216" enable-background="new 0 0 216 216" xml:space="preserve">
<path d="M63.5,193c-1-0.3-2.2,0.2-2.5,1.3l-0.6,1.9c-0.3,1.1,0.2,2.2,1.3,2.5c0.2,0.1,0.4,0.1,0.6,0.1c0.8,0,1.6-0.5,1.9-1.4
	l0.6-1.9C65.1,194.4,64.6,193.3,63.5,193z M68.2,178.3c-1.1-0.3-2.2,0.2-2.5,1.3l-1.2,3.9c-0.3,1,0.2,2.2,1.3,2.5
	c0.2,0.1,0.4,0.1,0.6,0.1c0.8,0,1.6-0.5,1.9-1.4l1.2-3.9C69.8,179.7,69.2,178.6,68.2,178.3z M103.1,68.6c0.2,0.1,0.4,0.1,0.6,0.1
	c0.8,0,1.6-0.5,1.9-1.4l1.2-3.9c0.3-1.1-0.2-2.2-1.3-2.5c-1.1-0.3-2.2,0.2-2.5,1.3l-1.2,3.9C101.5,67.2,102.1,68.3,103.1,68.6z
	 M107.8,53.9c0.2,0.1,0.4,0.1,0.6,0.1c0.8,0,1.6-0.5,1.9-1.4l1.2-3.9c0.3-1-0.2-2.2-1.3-2.5c-1-0.3-2.2,0.2-2.5,1.3l-1.2,3.9
	C106.2,52.5,106.8,53.6,107.8,53.9z M112.5,39.3c0.2,0.1,0.4,0.1,0.6,0.1c0.9,0,1.6-0.5,1.9-1.4l1.2-3.9c0.3-1-0.2-2.2-1.3-2.5
	c-1.1-0.3-2.2,0.2-2.5,1.3l-1.2,3.9C110.9,37.8,111.4,38.9,112.5,39.3z M117.2,24.6c0.2,0.1,0.4,0.1,0.6,0.1c0.8,0,1.6-0.5,1.9-1.4
	l0.6-1.9c0.3-1.1-0.2-2.2-1.3-2.5c-1-0.3-2.2,0.2-2.5,1.3l-0.6,1.9C115.5,23.1,116.1,24.3,117.2,24.6z M197.5,29.9
	c-0.8-0.8-2-0.8-2.8-0.1l-1.5,1.4c-0.8,0.8-0.8,2-0.1,2.8c0.4,0.4,0.9,0.6,1.5,0.6c0.5,0,1-0.2,1.4-0.5l1.5-1.4
	C198.2,31.9,198.2,30.7,197.5,29.9z M31.1,183.6l-2.9,2.8c-0.8,0.8-0.8,2-0.1,2.8c0.4,0.4,0.9,0.6,1.5,0.6c0.5,0,1-0.2,1.4-0.5
	l2.9-2.8c0.8-0.8,0.9-2,0.1-2.8C33.2,182.9,31.9,182.8,31.1,183.6z M185.1,38.7l-2.9,2.8c-0.8,0.8-0.9,2-0.1,2.8
	c0.4,0.4,0.9,0.6,1.5,0.6c0.5,0,1-0.2,1.4-0.5l2.9-2.8c0.8-0.8,0.9-2,0.1-2.8C187.2,38,185.9,38,185.1,38.7z M172.5,55.3
	c0.5,0,1-0.2,1.4-0.5l2.9-2.8c0.8-0.8,0.8-2,0.1-2.8c-0.8-0.8-2-0.8-2.8-0.1l-2.9,2.8c-0.8,0.8-0.9,2-0.1,2.8
	C171.5,55.1,172,55.3,172.5,55.3z M42.1,173.3l-2.9,2.8c-0.8,0.8-0.8,2-0.1,2.8c0.4,0.4,0.9,0.6,1.5,0.6c0.5,0,1-0.2,1.4-0.5
	l2.9-2.8c0.8-0.8,0.8-2,0.1-2.8C44.2,172.5,42.9,172.5,42.1,173.3z M20.1,193.9l-1.5,1.4c-0.8,0.8-0.8,2-0.1,2.8
	c0.4,0.4,0.9,0.6,1.5,0.6c0.5,0,1-0.2,1.4-0.5l1.5-1.4c0.8-0.8,0.8-2,0.1-2.8S20.9,193.2,20.1,193.9z M178.4,89.2l-7.2-4.1l0,0
	c1.4-3.1,2.1-6.4,2.1-9.8c0-9-5-16.9-12.3-21c-0.1,0-0.1-0.1-0.2-0.1c-0.1,0-0.1-0.1-0.2-0.1l0,0c-3.4-1.9-7.3-2.9-11.5-2.9
	c-7.8,0-15,3.8-19.5,10l0,0l-7.2-4.1c-1.2-0.7-2.7-0.3-3.4,0.9c-0.7,1.2-0.3,2.7,0.9,3.4l7.2,4.1l0,0c-1.4,3.1-2.1,6.4-2.1,9.8
	c0,5.7,2,10.9,5.3,15c-0.1,0-0.1,0.1-0.2,0.2l-2.9,2.8c-0.8,0.8-0.8,2-0.1,2.8c0.4,0.4,0.9,0.6,1.4,0.6s1-0.2,1.4-0.5l2.9-2.8
	c0.1-0.1,0.1-0.1,0.2-0.2c4.3,3.9,9.9,6.2,16.2,6.2c7.8,0,15-3.8,19.5-10l0,0l7.2,4.1c0.4,0.2,0.8,0.3,1.2,0.3
	c0.9,0,1.7-0.4,2.2-1.3C180,91.5,179.5,89.9,178.4,89.2z M149.2,94.1c-10.4,0-18.8-8.4-18.8-18.8c0-3.3,0.9-6.6,2.5-9.4
	c1-1.8,2.4-3.4,3.9-4.7v18.3c0,1.1,0.9,2,2,2c0.6,0,1.1-0.2,1.4-0.6c0.4-0.4,0.6-0.9,0.6-1.4v-21c2-1,4.1-1.6,6.4-1.9v27.7
	c0,1.1,0.9,2,2,2s2-0.9,2-2v-8.4v-5.2v-14c2.3,0.2,4.4,0.9,6.4,1.9v16.8c0,1.1,0.9,2,2,2s2-0.9,2-2v-9.6v-4.5c1,0.8,1.8,1.8,2.6,2.8
	c2.4,3.2,3.8,7.1,3.8,11.3c0,3.3-0.9,6.6-2.5,9.4C162.1,90.5,155.9,94.1,149.2,94.1z M132.4,129.6c0-6-1.1-11.8-3.1-17.1
	c-5.2-13.7-16.4-24.5-30.4-29.1c0.1,0,0.1,0,0.2,0c0.9,0,1.6-0.5,1.9-1.4l1.2-3.9c0.3-1.1-0.2-2.2-1.3-2.5c-1-0.3-2.2,0.2-2.5,1.3
	l-1.2,3.9c-0.3,0.9,0.1,1.9,0.9,2.3c-4.5-1.4-9.4-2.2-14.4-2.2c-11.4,0-22.4,4-31.1,11.2l0,0l-9-9.8c-0.9-1-2.5-1.1-3.5-0.1
	c-1,0.9-1.1,2.5-0.1,3.5l9,9.8c-8.9,9-14,21.3-14,34.1c0,14.1,6,26.8,15.6,35.6l-0.4,0.4c-0.8,0.8-0.8,2-0.1,2.8
	c0.4,0.4,0.9,0.6,1.5,0.6c0.5,0,1-0.2,1.4-0.5l0.7-0.7c8.3,6.5,18.7,10.4,30.1,10.4s22.3-4,31.1-11.2l0,0l9,9.8
	c0.5,0.5,1.2,0.8,1.8,0.8c0.6,0,1.2-0.2,1.7-0.7c1-0.9,1.1-2.5,0.1-3.5l-9-9.8l0,0C127.3,154.7,132.4,142.4,132.4,129.6z M69.1,169
	c-7.1-2.6-13.3-7.1-18-12.9h9.6h5.5h8.1h2.9H83c1.8,0,3.3-1.5,3.3-3.3s-1.5-3.3-3.3-3.3h-4.6h-2.8h-29c-1.9-3.6-3.3-7.5-4.2-11.6H79
	h4.2h0.5h1.7H98c1.8,0,3.3-1.5,3.3-3.3s-1.5-3.3-3.3-3.3H41.7c0-0.5,0-1,0-1.6c0-11.7,4.9-22.9,13.4-30.8c0.1,0,0.1-0.1,0.2-0.2
	c7.8-7.2,17.9-11.1,28.4-11.1c13.2,0,25,6.1,32.7,15.7c0.8,1,1.6,2.1,2.4,3.2c0.9,1.3,1.7,2.7,2.4,4.1h-11.3c-0.3,0-0.5,0-0.8,0
	H91.8h-4.1h-0.4c-1.8,0-3.3,1.5-3.3,3.3s1.5,3.3,3.3,3.3h18.8h0.9h16.9c1.2,3.9,1.8,8,1.8,12.3c0,11.7-5,23-13.6,31
	c-7.8,7.1-17.9,11.1-28.4,11.1c-3.8,0-7.4-0.5-10.9-1.4C71.5,169.9,70.3,169.5,69.1,169z"/>
</svg>
