<?xml version="1.0" encoding="utf-8"?>
<!-- Generator: Adobe Illustrator 18.1.1, SVG Export Plug-In . SVG Version: 6.00 Build 0)  -->
<!DOCTYPE svg PUBLIC "-//W3C//DTD SVG 1.1//EN" "http://www.w3.org/Graphics/SVG/1.1/DTD/svg11.dtd">
<svg version="1.1" id="Layer_1" xmlns="http://www.w3.org/2000/svg" xmlns:xlink="http://www.w3.org/1999/xlink" x="0px" y="0px"
	 width="216px" height="216px" viewBox="0 0 216 216" enable-background="new 0 0 216 216" xml:space="preserve">
<path d="M139.4,73.8v70h-15.8l-14.3-19.5c-6.4-8.8-15.8-22.1-15.9-22.1h-0.1c-0.1,0,0.1,10.8,0.1,26.1v15.5H76.6v-70h15.8l14.9,20
	c4.5,6,15.2,21.1,15.3,21.1h0.1c0.1,0-0.1-12.4-0.1-25.1v-16H139.4z M108,29.8c43.6,0,79,35.4,79,79s-35.4,79-79,79s-79-35.4-79-79
	S64.4,29.8,108,29.8 M108,20.8c-48.6,0-88,39.4-88,88s39.4,88,88,88s88-39.4,88-88S156.6,20.8,108,20.8L108,20.8z"/>
</svg>
