<?xml version="1.0" encoding="utf-8"?>
<!-- Generator: Adobe Illustrator 18.1.1, SVG Export Plug-In . SVG Version: 6.00 Build 0)  -->
<!DOCTYPE svg PUBLIC "-//W3C//DTD SVG 1.1//EN" "http://www.w3.org/Graphics/SVG/1.1/DTD/svg11.dtd">
<svg version="1.1" id="Layer_1" xmlns="http://www.w3.org/2000/svg" xmlns:xlink="http://www.w3.org/1999/xlink" x="0px" y="0px"
	 width="216px" height="216px" viewBox="0 0 216 216" enable-background="new 0 0 216 216" xml:space="preserve">
<path fill="#010101" d="M195.8,102.8C195.8,102.8,195.8,102.8,195.8,102.8c0-0.1,0-0.1,0-0.2c-3.2-45.7-41.3-81.8-87.8-81.8
	c-48.6,0-88,39.4-88,88s39.4,88,88,88s88-39.4,88-88C196,106.8,195.9,104.8,195.8,102.8z M108,187.8c-43.6,0-79-35.4-79-79
	c0-38.1,27.1-69.9,62.9-77.4L45.6,77.7c-1.3,4.9-2.1,9.9-2.4,15.1l63-63c0.6,0,1.1,0,1.7,0c8.7,0,17.2,1.5,25,4.1l-86.4,86.4
	c1,3.2,2.2,6.2,3.6,9.2l91.9-91.9c6.7,3.2,12.9,7.4,18.5,12.3L62.4,148c2,2.2,4.1,4.4,6.4,6.4l98.1-98.1c4.9,5.5,9.1,11.7,12.3,18.5
	l-91.9,91.9c3,1.4,6,2.6,9.2,3.6l86.4-86.4c2.6,7.9,4.1,16.3,4.1,25c0,0.6,0,1.2,0,1.7l-63,63c5.2-0.3,10.3-1.1,15.1-2.4l46.3-46.3
	C177.9,160.7,146.1,187.8,108,187.8z"/>
</svg>
