<?xml version="1.0" encoding="utf-8"?>
<!-- Generator: Adobe Illustrator 18.1.1, SVG Export Plug-In . SVG Version: 6.00 Build 0)  -->
<!DOCTYPE svg PUBLIC "-//W3C//DTD SVG 1.1//EN" "http://www.w3.org/Graphics/SVG/1.1/DTD/svg11.dtd">
<svg version="1.1" id="Layer_1" xmlns="http://www.w3.org/2000/svg" xmlns:xlink="http://www.w3.org/1999/xlink" x="0px" y="0px"
	 width="216px" height="216px" viewBox="0 0 216 216" enable-background="new 0 0 216 216" xml:space="preserve">
<path d="M105,145.3l30.4-30.4l13.8,13.8l41.1-41.1l-5.5-5.5c0.6-3.2,0.9-6.5,0.9-9.7c0-28.6-23.2-51.8-51.8-51.8
	c-3.3,0-6.5,0.3-9.7,0.9l-5.5-5.5l-41,41.2L91.5,71L61,101.4l8.2,8.2l-26.7,26.7l6.3,6.3l-23.1,23.1l15,15l23.1-23.1l6.3,6.3
	l26.7-26.7L105,145.3z M134,27.3c24.9,0,45.1,20.2,45.1,45.1c0,1.3-0.1,2.6-0.2,3.8l-48.8-48.8C131.4,27.3,132.7,27.3,134,27.3z
	 M87.1,57.2l31.7-31.7l62.1,62.1l-5.5,5.5L146.2,64c-1.2-1.2-3.1-1.2-4.2,0c-1.2,1.2-1.2,3.1,0,4.2l29.1,29.1l-4.4,4.4l-29.6-29.6
	c-1.2-1.2-3.1-1.2-4.2,0c-1.2,1.2-1.2,3.1,0,4.2l29.6,29.6l-4.9,4.9l-29.1-29.1c-1.2-1.2-3.1-1.2-4.2,0c-1.2,1.2-1.2,3.1,0,4.2
	l29.1,29.1l-4.1,4.1l-43.9-43.9l-9.1-9.1l0,0L87.1,57.2z M96.2,75.7l34.5,34.5l-6.4,6.4L108,100.3c-1.2-1.2-3.1-1.2-4.2,0
	c-1.2,1.2-1.2,3.1,0,4.2l16.3,16.3l-5.1,5.1l-15.3-15.3c-1.2-1.2-3.1-1.2-4.2,0c-1.2,1.2-1.2,3.1,0,4.2l15.3,15.3l-5.7,5.7
	l-17.2-17.2l-13.8-13.8l0,0l-3.5-3.5L96.2,75.7z M40.7,171.2l-5.6-5.6l18.3-18.3l4.8,4.8l0.8,0.8L40.7,171.2z M87,137.5l-7.1-7.1
	c-1.2-1.2-3.1-1.2-4.2,0c-1.2,1.2-1.2,3.1,0,4.2l7.1,7.1l-4.8,4.8l-7.1-7.1c-1.2-1.2-3.1-1.2-4.2,0c-1.2,1.2-1.2,3.1,0,4.2l7.1,7.1
	l-3.7,3.7L52,136.3l22-22l9.1,9.1l9.1,9.1L87,137.5z M133.4,147.9c3.9-2.5,6.5-6.9,6.5-11.9c0-3.8-1.5-7.3-4.1-10l-2.1-2.1l-20,20
	l2.1,2.1c2.2,2.2,5.1,3.6,8.2,4l-29.6,45.1c-0.9,1.4-0.5,3.2,0.9,4.2c0.5,0.3,1.1,0.5,1.6,0.5c1,0,1.9-0.5,2.5-1.4l27.1-41.2v39.6
	c0,1.7,1.3,3,3,3c1.7,0,3-1.3,3-3v-39.3l26.2,41c0.6,0.9,1.5,1.4,2.5,1.4c0.6,0,1.1-0.2,1.6-0.5c1.4-0.9,1.8-2.7,0.9-4.1
	L133.4,147.9z M125.7,144.2c-1.1,0-2.2-0.2-3.2-0.7l10.7-10.7c0.4,1,0.7,2.1,0.7,3.2C133.9,140.5,130.2,144.2,125.7,144.2z"/>
</svg>
