<?xml version="1.0" encoding="utf-8"?>
<!-- Generator: Adobe Illustrator 18.1.1, SVG Export Plug-In . SVG Version: 6.00 Build 0)  -->
<!DOCTYPE svg PUBLIC "-//W3C//DTD SVG 1.1//EN" "http://www.w3.org/Graphics/SVG/1.1/DTD/svg11.dtd">
<svg version="1.1" id="Layer_1" xmlns="http://www.w3.org/2000/svg" xmlns:xlink="http://www.w3.org/1999/xlink" x="0px" y="0px"
	 width="216px" height="216px" viewBox="0 0 216 216" enable-background="new 0 0 216 216" xml:space="preserve">
<path fill="#010101" d="M108,195.4c48.6,0,88-39.4,88-88s-39.4-88-88-88s-88,39.4-88,88S59.4,195.4,108,195.4z M108,28.8
	c13.1,0,25.4,3.2,36.2,8.9H98c-3.3,0-6,2.7-6,6s2.7,6,6,6h60.6c0.8,0,1.5-0.2,2.2-0.4c6.4,5.8,11.9,12.7,16.1,20.3H98
	c-3.3,0-6,2.7-6,6s2.7,6,6,6h82c0.7,0,1.4-0.1,2.1-0.4c2.3,6.4,3.7,13.2,4.3,20.3c-0.1,0-0.3,0-0.4,0H98c-3.3,0-6,2.7-6,6s2.7,6,6,6
	h88c0.1,0,0.3,0,0.4,0c-0.5,7.1-2,13.9-4.3,20.3c-0.7-0.2-1.4-0.4-2.1-0.4H98c-3.3,0-6,2.7-6,6s2.7,6,6,6h78.9
	c-4.2,7.6-9.7,14.5-16.1,20.3c-0.7-0.3-1.4-0.4-2.2-0.4H98c-3.3,0-6,2.7-6,6s2.7,6,6,6h46.2c-10.8,5.7-23.2,8.9-36.2,8.9
	c-43.4,0-78.7-35.3-78.7-78.7S64.6,28.8,108,28.8z"/>
</svg>
