<?xml version="1.0" encoding="utf-8"?>
<!-- Generator: Adobe Illustrator 18.1.1, SVG Export Plug-In . SVG Version: 6.00 Build 0)  -->
<!DOCTYPE svg PUBLIC "-//W3C//DTD SVG 1.1//EN" "http://www.w3.org/Graphics/SVG/1.1/DTD/svg11.dtd">
<svg version="1.1" id="Layer_1" xmlns="http://www.w3.org/2000/svg" xmlns:xlink="http://www.w3.org/1999/xlink" x="0px" y="0px"
	 width="216px" height="216px" viewBox="0 0 216 216" enable-background="new 0 0 216 216" xml:space="preserve">
<path fill="#010101" d="M108,195.4c48.6,0,88-39.4,88-88s-39.4-88-88-88s-88,39.4-88,88S59.4,195.4,108,195.4z M55.2,49.2
	c0.7,0.3,1.4,0.4,2.2,0.4H118c3.3,0,6-2.7,6-6s-2.7-6-6-6H71.8c10.8-5.7,23.2-8.9,36.2-8.9c43.4,0,78.7,35.3,78.7,78.7
	s-35.3,78.7-78.7,78.7c-13.1,0-25.4-3.2-36.2-8.9H118c3.3,0,6-2.7,6-6s-2.7-6-6-6H57.4c-0.8,0-1.5,0.2-2.2,0.4
	c-6.4-5.8-11.9-12.7-16.1-20.3H118c3.3,0,6-2.7,6-6s-2.7-6-6-6H36c-0.7,0-1.4,0.1-2.1,0.4c-2.3-6.4-3.7-13.2-4.3-20.3
	c0.1,0,0.3,0,0.4,0h88c3.3,0,6-2.7,6-6s-2.7-6-6-6H30c-0.1,0-0.3,0-0.4,0c0.5-7.1,2-13.9,4.3-20.3c0.7,0.2,1.4,0.4,2.1,0.4h82
	c3.3,0,6-2.7,6-6s-2.7-6-6-6H39.1C43.3,61.9,48.8,55,55.2,49.2z"/>
</svg>
