<?xml version="1.0" encoding="utf-8"?>
<!-- Generator: Adobe Illustrator 18.1.1, SVG Export Plug-In . SVG Version: 6.00 Build 0)  -->
<!DOCTYPE svg PUBLIC "-//W3C//DTD SVG 1.1//EN" "http://www.w3.org/Graphics/SVG/1.1/DTD/svg11.dtd">
<svg version="1.1" id="Layer_1" xmlns="http://www.w3.org/2000/svg" xmlns:xlink="http://www.w3.org/1999/xlink" x="0px" y="0px"
	 width="216px" height="216px" viewBox="0 0 216 216" enable-background="new 0 0 216 216" xml:space="preserve">
<path d="M186.6,134.2L115.1,23.1c-1.2-1.9-3.7-2.4-5.5-1.2c-1.9,1.2-2.4,3.7-1.2,5.5l57.7,89.7c-27.4-21-73.2-52.2-92.6-52.2
	c-3.6,0-6.5,1-8.5,3.1c-4.8,4.8-7.8,16.6,22.1,62.8c8.9,13.7,18.7,27.4,27.1,38.3l-89.7-57.7c-1.9-1.2-4.3-0.7-5.5,1.2
	c-1.2,1.9-0.7,4.3,1.2,5.5l111.1,71.5c7.4,7.2,17.1,11.2,27.4,11.2c10.5,0,20.3-4.1,27.7-11.5C201.5,174.1,201.6,149.5,186.6,134.2z
	 M180.6,183.6c-5.9,5.9-13.7,9.1-22.1,9.1c-8.3,0-16.2-3.2-22.1-9.1l0,0l0,0c-6.7-6.7-26.6-32.2-42.7-57.1
	C64.3,80.8,70.3,73.9,70.6,73.6c0.5-0.4,1.5-0.7,2.9-0.7c21.9,0,94.5,53.9,107.1,66.6C192.8,151.6,192.8,171.4,180.6,183.6z
	 M147.5,150.5l-4,15.1l11,11l15.1-4l4-15.1l-11-11L147.5,150.5z M163.1,166.1l-6.2,1.7l-4.5-4.5l1.7-6.2l6.2-1.7l4.5,4.5
	L163.1,166.1z M116,71.6c0.8,0.9,1.9,1.3,3,1.3c1,0,1.9-0.3,2.7-1c1.6-1.5,1.7-4,0.3-5.7L78,18.1c-1.5-1.6-4-1.7-5.7-0.3
	c-1.6,1.5-1.7,4-0.3,5.7L116,71.6z M41.9,50c0.8,0.8,1.8,1.1,2.8,1.1s2.1-0.4,2.9-1.2c1.5-1.6,1.5-4.1-0.1-5.7l-5.7-5.6
	c-1.6-1.5-4.1-1.5-5.7,0.1c-1.5,1.6-1.5,4.1,0.1,5.7L41.9,50z M57.2,64.9C58,65.7,59,66,60,66s2.1-0.4,2.9-1.2
	c1.5-1.6,1.5-4.1-0.1-5.7l-5.7-5.6C55.5,52,53,52,51.4,53.6c-1.5,1.6-1.5,4.1,0.1,5.7L57.2,64.9z M26.7,35.1
	c0.8,0.8,1.8,1.1,2.8,1.1s2.1-0.4,2.9-1.2c1.5-1.6,1.5-4.1-0.1-5.7l-5.7-5.6c-1.6-1.5-4.1-1.5-5.7,0.1c-1.5,1.6-1.5,4.1,0.1,5.7
	L26.7,35.1z M80.1,171.5l-54.3-17.3c-2.1-0.7-4.4,0.5-5,2.6c-0.7,2.1,0.5,4.4,2.6,5l54.3,17.3c0.4,0.1,0.8,0.2,1.2,0.2
	c1.7,0,3.3-1.1,3.8-2.8C83.4,174.4,82.2,172.2,80.1,171.5z M31.5,86.6c-1.2,1.9-0.7,4.3,1.2,5.5l18.1,11.8c0.7,0.4,1.4,0.6,2.2,0.6
	c1.3,0,2.6-0.6,3.4-1.8c1.2-1.9,0.7-4.3-1.2-5.5L37,85.4C35.2,84.2,32.7,84.8,31.5,86.6z M167.2,75.3c0.6,1.6,2.1,2.6,3.7,2.6
	c0.5,0,0.9-0.1,1.4-0.3c2.1-0.8,3.1-3.1,2.3-5.2l-11-29.1c-0.8-2.1-3.1-3.1-5.2-2.3c-2.1,0.8-3.1,3.1-2.3,5.2L167.2,75.3z"/>
</svg>
