<?xml version="1.0" encoding="utf-8"?>
<!-- Generator: Adobe Illustrator 18.1.1, SVG Export Plug-In . SVG Version: 6.00 Build 0)  -->
<!DOCTYPE svg PUBLIC "-//W3C//DTD SVG 1.1//EN" "http://www.w3.org/Graphics/SVG/1.1/DTD/svg11.dtd">
<svg version="1.1" id="Layer_1" xmlns="http://www.w3.org/2000/svg" xmlns:xlink="http://www.w3.org/1999/xlink" x="0px" y="0px"
	 width="216px" height="216px" viewBox="0 0 216 216" enable-background="new 0 0 216 216" xml:space="preserve">
<path d="M154.2,75.2c-0.3-0.4-0.6-0.7-1-1.1l-25,25.5l20.4-30.3c-0.3-0.3-0.6-0.6-0.9-0.8l-21.3,5.7l16.7-9.5
	c-25.7-19.5-62.4-17.6-85.9,5.9c-25.6,25.6-25.6,67,0,92.6s67,25.6,92.6,0c22.4-22.4,25.2-56.9,8.4-82.3l-6.8,21.2L154.2,75.2z
	 M192.1,76.9l-22.7-15.7l20.7-9.8l-21.8,3.2l17.1-34l-25,32.2l-13.7-18.6l6.8,20.1C139,42.8,121.4,37,103.9,37
	C83.5,37,63,44.8,47.4,60.4c-31.2,31.2-31.2,81.7,0,112.9c15.6,15.6,36,23.4,56.5,23.4c20.4,0,40.9-7.8,56.5-23.4
	c28.9-28.9,31-74.4,6.3-105.8L192.1,76.9z M155.1,168.3c-13.7,13.7-31.9,21.3-51.3,21.3s-37.6-7.5-51.3-21.3
	c-13.7-13.7-21.3-31.9-21.3-51.3s7.5-37.6,21.3-51.3C66.2,52,84.4,44.4,103.8,44.4s37.6,7.5,51.3,21.3
	C183.4,93.9,183.4,140,155.1,168.3z"/>
</svg>
