<?xml version="1.0" encoding="utf-8"?>
<!-- Generator: Adobe Illustrator 18.1.1, SVG Export Plug-In . SVG Version: 6.00 Build 0)  -->
<!DOCTYPE svg PUBLIC "-//W3C//DTD SVG 1.1//EN" "http://www.w3.org/Graphics/SVG/1.1/DTD/svg11.dtd">
<svg version="1.1" id="Layer_1" xmlns="http://www.w3.org/2000/svg" xmlns:xlink="http://www.w3.org/1999/xlink" x="0px" y="0px"
	 width="216px" height="216px" viewBox="0 0 216 216" enable-background="new 0 0 216 216" xml:space="preserve">
<path d="M64.8,70.7c0-2-1.6-3.6-3.6-3.6s-3.6,1.6-3.6,3.6s1.6,3.6,3.6,3.6S64.8,72.7,64.8,70.7z M111.1,29.8c2,0,3.6-1.6,3.6-3.6
	s-1.6-3.6-3.6-3.6s-3.6,1.6-3.6,3.6C107.4,28.2,109.1,29.8,111.1,29.8z M173.8,81.3c2,0,3.6-1.6,3.6-3.6s-1.6-3.6-3.6-3.6
	s-3.6,1.6-3.6,3.6C170.2,79.6,171.9,81.3,173.8,81.3z M172.9,177.1c0,2,1.6,3.6,3.6,3.6s3.6-1.6,3.6-3.6s-1.6-3.6-3.6-3.6
	S172.9,175.2,172.9,177.1z M174.6,169.6l-67.9-64.1L169,83.7c-1.8-1.4-3-3.6-3-6.1c0-0.6,0.1-1.2,0.2-1.7L104,97.7l10.1-64.4
	c-0.9,0.4-2,0.6-3.1,0.6c-2,0-3.7-0.7-5.1-1.9l-10,63.8L68.8,71.9c-0.5,3-2.6,5.4-5.5,6.2L92,103.4l-49.5,33.3
	c2.7,1.2,4.5,3.8,4.6,6.9l42.1-28.3l-30,68.4c0.4-0.1,0.8-0.1,1.2-0.1c2.7,0,5,1.4,6.4,3.4l33.4-76.1l68.6,64.7
	C169.4,172.7,171.7,170.4,174.6,169.6z M39.5,140.2c-2,0-3.6,1.6-3.6,3.6s1.6,3.6,3.6,3.6s3.6-1.6,3.6-3.6
	C43.1,141.9,41.5,140.2,39.5,140.2z M60.5,187.8c-2,0-3.6,1.6-3.6,3.6s1.6,3.6,3.6,3.6s3.6-1.6,3.6-3.6S62.5,187.8,60.5,187.8z"/>
</svg>
