<?xml version="1.0" encoding="utf-8"?>
<!-- Generator: Adobe Illustrator 18.1.1, SVG Export Plug-In . SVG Version: 6.00 Build 0)  -->
<!DOCTYPE svg PUBLIC "-//W3C//DTD SVG 1.1//EN" "http://www.w3.org/Graphics/SVG/1.1/DTD/svg11.dtd">
<svg version="1.1" id="Layer_1" xmlns="http://www.w3.org/2000/svg" xmlns:xlink="http://www.w3.org/1999/xlink" x="0px" y="0px"
	 width="216px" height="216px" viewBox="0 0 216 216" enable-background="new 0 0 216 216" xml:space="preserve">
<path d="M170.2,46.5C153,29.4,130.5,20.8,108,20.8c-10.3,0-20.6,1.8-30.4,5.4c-0.5,0.1-0.9,0.3-1.3,0.5C65.1,31,54.7,37.6,45.8,46.5
	c-34.4,34.4-34.4,90.1,0,124.5c17.2,17.2,39.7,25.8,62.2,25.8s45-8.6,62.2-25.8C204.6,136.6,204.6,80.9,170.2,46.5z M51.4,165.3
	c-8-8-14.1-17.5-18.1-27.8l30.2,30.2c0.8,0.8,1.8,1.2,2.8,1.2s2-0.4,2.8-1.2c1.6-1.6,1.6-4.1,0-5.7l-40-40
	c-0.7-4.3-1.1-8.8-1.1-13.2c0-10.1,1.9-19.8,5.4-28.9l15.9,15.9c-5.3,7.9-4.4,18.7,2.5,25.7c5.7,5.7,21,14.2,31.3,14.2
	c1.9,0,3.6-0.3,5.1-0.9l48.7,48.7c-9.1,3.5-18.9,5.4-28.9,5.4C86.6,188.8,66.5,180.5,51.4,165.3z M86.1,126.9
	c-0.5,0.5-1.5,0.7-2.9,0.7c-7.5,0-21.1-7.3-25.7-11.9c-4.8-4.8-4.8-12.6,0-17.5c2.3-2.3,5.4-3.6,8.7-3.6c3.3,0,6.4,1.3,8.7,3.6
	C82.7,106.1,89,123.9,86.1,126.9z M164.6,165.3c-0.8,0.8-1.6,1.6-2.5,2.4l-41.4-41.4c-1.6-1.6-4.1-1.6-5.7,0s-1.6,4.1,0,5.7
	l40.9,40.9c-3.5,2.7-7.3,5-11.2,7l-50.8-50.8c1.6-4.3,0.9-10.4-2.1-18C89,104,84.4,96.4,80.6,92.6s-9-6-14.4-6
	c-4.1,0-8,1.2-11.3,3.4l-18-18c3.7-7.2,8.6-13.9,14.5-19.8c1.1-1.1,2.2-2.1,3.3-3.1l12.8,12.8c0.8,0.8,1.8,1.2,2.8,1.2
	s2-0.4,2.8-1.2c1.6-1.6,1.6-4.1,0-5.7L61,44c5.1-3.7,10.5-6.8,16.3-9.2l69.5,69.5c0.8,0.8,1.8,1.2,2.8,1.2s2-0.4,2.8-1.2
	c1.6-1.6,1.6-4.1,0-5.7L85.7,31.9c7.1-2.1,14.6-3.1,22.2-3.1l40,40c0.8,0.8,1.8,1.2,2.8,1.2s2-0.4,2.8-1.2c1.6-1.6,1.6-4.1,0-5.7
	L120,29.6c16.8,2.5,32.2,10.3,44.4,22.5C195.8,83.4,195.8,134.2,164.6,165.3z M178.3,124.5l-10.6-10.6c-1.6-1.6-4.1-1.6-5.7,0
	c-1.6,1.6-1.6,4.1,0,5.7l10.6,10.6c0.8,0.8,1.8,1.2,2.8,1.2s2-0.4,2.8-1.2C179.9,128.6,179.9,126.1,178.3,124.5z M93.5,76.6
	c-1.6-1.6-4.1-1.6-5.7,0s-1.6,4.1,0,5.7l10.6,10.6c0.8,0.8,1.8,1.2,2.8,1.2s2-0.4,2.8-1.2c1.6-1.6,1.6-4.1,0-5.7L93.5,76.6z
	 M93.5,159.1c-1.6-1.6-4.1-1.6-5.7,0s-1.6,4.1,0,5.7l10.6,10.6c0.8,0.8,1.8,1.2,2.8,1.2s2-0.4,2.8-1.2c1.6-1.6,1.6-4.1,0-5.7
	L93.5,159.1z"/>
</svg>
