<?xml version="1.0" encoding="utf-8"?>
<!-- Generator: Adobe Illustrator 18.1.1, SVG Export Plug-In . SVG Version: 6.00 Build 0)  -->
<!DOCTYPE svg PUBLIC "-//W3C//DTD SVG 1.1//EN" "http://www.w3.org/Graphics/SVG/1.1/DTD/svg11.dtd">
<svg version="1.1" id="Layer_1" xmlns="http://www.w3.org/2000/svg" xmlns:xlink="http://www.w3.org/1999/xlink" x="0px" y="0px"
	 width="216px" height="216px" viewBox="0 0 216 216" enable-background="new 0 0 216 216" xml:space="preserve">
<path d="M85.2,150.1h6.4v15.2h-6.4V150.1z M69.6,150.1H76v15.2h-6.4V150.1z M54.1,150.1h6.4v15.2h-6.4V150.1z M38.5,150.1h6.4v15.2
	h-6.4V150.1z M179.9,120.6h-69.7c-7.9,0-14.2,6.4-14.2,14.3v5H38c-7.9,0-14.3,6.4-14.3,14.3v7.4c0,7.9,6.4,14.3,14.3,14.3h69.7
	c7.9,0,14.2-6.4,14.2-14.3v-5h58c7.9,0,14.3-6.4,14.3-14.3v-7.4C194.2,127,187.8,120.6,179.9,120.6z M115.5,161.5
	c0,4.3-3.5,7.9-7.9,7.9H38c-4.3,0-7.9-3.5-7.9-7.9v-7.4c0-4.3,3.5-7.9,7.9-7.9h58.6c0.8,2.6,2.2,4.9,4.2,6.6v12.5h6.4V156
	c1,0.2,2,0.3,3.1,0.3h5.3L115.5,161.5L115.5,161.5z M187.8,142.2c0,4.3-3.5,7.9-7.9,7.9h-58.6H118h-3.6h-4.2c-2.9,0-5.4-1.5-6.7-3.8
	c-0.6-1-0.9-2-1.1-3.2c0-0.3,0-0.5,0-0.8v-2.4v-5c0-4.3,3.5-7.9,7.9-7.9H180c4.3,0,7.9,3.5,7.9,7.9L187.8,142.2L187.8,142.2z
	 M157.4,130.9h6.4v15.3h-6.4V130.9z M141.9,130.9h6.4v15.3h-6.4V130.9z M126.3,130.9h6.4v15.3h-6.4V130.9z M110.8,130.9h6.4v15.3
	h-6.4V130.9z M172.9,130.9h6.4v15.3h-6.4V130.9z M155.3,30.5h6.4v13.7h-6.4V30.5z M139.8,30.5h6.4v13.7h-6.4V30.5z M124.2,30.5h6.4
	v13.7h-6.4V30.5z M170.8,30.5h6.4v13.7h-6.4V30.5z M177.8,19.4h-69.7c-7.9,0-14.3,6.4-14.3,14.3v0.5H39.2c-7.9,0-14.2,6.4-14.2,14.3
	v7.4C25,63.7,31.4,70,39.2,70H109c7.9,0,14.3-6.4,14.3-14.3v-0.5h54.6c7.9,0,14.3-6.4,14.3-14.3v-7.4
	C192.1,25.8,185.7,19.4,177.8,19.4z M116.8,55.8c0,4.3-3.5,7.9-7.9,7.9H39.2c-4.3,0-7.9-3.5-7.9-7.9v-7.4c0-4.3,3.5-7.9,7.9-7.9
	h69.5h0.3c2.5,0,4.7,1.2,6.1,3c1.1,1.3,1.7,3,1.7,4.9C116.8,48.4,116.8,55.8,116.8,55.8z M185.7,41.1c0,4.3-3.5,7.9-7.9,7.9h-54.6
	v-0.5c0-5.7-3.3-10.6-8.1-12.9v-5h-6.4v3.6h-8.4v-0.5c0-4.3,3.5-7.9,7.9-7.9h69.7c4.3,0,7.9,3.5,7.9,7.9L185.7,41.1L185.7,41.1z
	 M86.4,45h6.4v14.3h-6.4V45z M70.9,45h6.4v14.3h-6.4V45z M55.4,45h6.4v14.3h-6.4V45z M39.8,45h6.4v14.3h-6.4V45z M102,45h6.4v14.3
	H102V45z M182.6,94.4H98.4c-5.9,0-10.6,4.8-10.6,10.6v6.1c0,1.6-1.3,2.9-2.9,2.9H38c-2.1,0-3.8,1.7-3.8,3.8c0,2.1,1.7,3.8,3.8,3.8
	h46.8c5.9,0,10.6-4.8,10.6-10.6v-6c0-1.6,1.3-2.9,2.9-2.9h84.2c2.1,0,3.8-1.7,3.8-3.8C186.5,96.1,184.8,94.4,182.6,94.4z M182.6,168
	h-35.5c-5.9,0-10.6,4.8-10.6,10.6v6.1c0,1.6-1.3,2.9-2.9,2.9H68.2c-2.1,0-3.8,1.7-3.8,3.8s1.7,3.8,3.8,3.8h65.4
	c5.9,0,10.6-4.8,10.6-10.6v-6.1c0-1.6,1.3-2.9,2.9-2.9h35.5c2.1,0,3.8-1.7,3.8-3.8C186.5,169.8,184.8,168,182.6,168z M179,75.8
	h-48.8c-2.1,0-3.8-1.7-3.8-3.8c0-2.1,1.7-3.8,3.8-3.8H179c2.1,0,3.8,1.7,3.8,3.8C182.9,74.1,181.1,75.8,179,75.8z M61.9,96.1H25.7
	c-2.1,0-3.8-1.7-3.8-3.8s1.7-3.8,3.8-3.8h36.2c2.1,0,3.8,1.7,3.8,3.8S64,96.1,61.9,96.1z"/>
</svg>
