<?xml version="1.0" encoding="utf-8"?>
<!-- Generator: Adobe Illustrator 18.1.1, SVG Export Plug-In . SVG Version: 6.00 Build 0)  -->
<!DOCTYPE svg PUBLIC "-//W3C//DTD SVG 1.1//EN" "http://www.w3.org/Graphics/SVG/1.1/DTD/svg11.dtd">
<svg version="1.1" id="Layer_1" xmlns="http://www.w3.org/2000/svg" xmlns:xlink="http://www.w3.org/1999/xlink" x="0px" y="0px"
	 width="216px" height="216px" viewBox="0 0 216 216" enable-background="new 0 0 216 216" xml:space="preserve">
<path d="M108,29.8c43.6,0,79,35.4,79,79s-35.4,79-79,79s-79-35.4-79-79S64.4,29.8,108,29.8 M108,20.8c-48.6,0-88,39.4-88,88
	s39.4,88,88,88s88-39.4,88-88S156.6,20.8,108,20.8L108,20.8z M102.9,92.5v13.7h25.7v15.1h-25.7v25.5H86.1v-70H136v15.7L102.9,92.5
	L102.9,92.5z"/>
</svg>
