<?xml version="1.0" encoding="utf-8"?>
<!-- Generator: Adobe Illustrator 18.1.0, SVG Export Plug-In . SVG Version: 6.00 Build 0)  -->
<!DOCTYPE svg PUBLIC "-//W3C//DTD SVG 1.1//EN" "http://www.w3.org/Graphics/SVG/1.1/DTD/svg11.dtd">
<svg version="1.1" id="Layer_1" xmlns="http://www.w3.org/2000/svg" xmlns:xlink="http://www.w3.org/1999/xlink" x="0px" y="0px"
	 viewBox="0 0 2000 1050" enable-background="new 0 0 1500 550" xml:space="preserve">
<symbol  id="smallstars" viewBox="-61 -57.1 122 114.2">
	<path fill="#FDF5E6" d="M-31.9-48.2c0-0.6-0.5-1.2-1.2-1.2s-1.2,0.5-1.2,1.2c0,0.6,0.5,1.2,1.2,1.2S-31.9-47.6-31.9-48.2z"/>
	<path fill="#FDF5E6" d="M2.5-26.5c0-0.6-0.5-1.2-1.2-1.2s-1.2,0.5-1.2,1.2c0,0.6,0.5,1.2,1.2,1.2S2.5-25.9,2.5-26.5z"/>
	<path fill="#FDF5E6" d="M-45.9-4.3c0-0.5-0.4-1-1-1c-0.5,0-1,0.4-1,1s0.4,1,1,1C-46.3-3.3-45.9-3.7-45.9-4.3z"/>
	<path fill="#FDF5E6" d="M26.5,17.6c0-0.6-0.5-1.2-1.2-1.2s-1.2,0.5-1.2,1.2c0,0.6,0.5,1.2,1.2,1.2S26.5,18.3,26.5,17.6z"/>
	<path fill="#FDF5E6" d="M-6-0.2c0-0.6-0.5-1.2-1.2-1.2s-1.2,0.5-1.2,1.2S-7.8,1-7.2,1S-6,0.4-6-0.2z"/>
	<path fill="#FDF5E6" d="M-23,30.4c0-0.4-0.3-0.8-0.8-0.8s-0.8,0.3-0.8,0.8s0.3,0.8,0.8,0.8S-23,30.8-23,30.4z"/>
	<path fill="#FDF5E6" d="M35.8,51.9c0-0.7-0.6-1.4-1.4-1.4c-0.7,0-1.4,0.6-1.4,1.4c0,0.7,0.6,1.4,1.4,1.4
		C35.2,53.2,35.8,52.6,35.8,51.9z"/>
	<path fill="#FDF5E6" d="M-55.9,15.1c0-0.7-0.6-1.4-1.4-1.4c-0.7,0-1.4,0.6-1.4,1.4c0,0.7,0.6,1.4,1.4,1.4
		C-56.6,16.5-55.9,15.8-55.9,15.1z"/>
	<path fill="#FDF5E6" d="M61-21.5c0-0.6-0.5-1.2-1.2-1.2c-0.6,0-1.2,0.5-1.2,1.2s0.5,1.2,1.2,1.2C60.5-20.3,61-20.8,61-21.5z"/>
	<path fill="#FDF5E6" d="M13.4-56.3c0-0.4-0.3-0.8-0.8-0.8c-0.4,0-0.8,0.3-0.8,0.8c0,0.4,0.3,0.8,0.8,0.8
		C13-55.6,13.4-55.9,13.4-56.3z"/>
	<path fill="#FDF5E6" d="M-24.6,55.6c0-0.9-0.7-1.5-1.5-1.5c-0.9,0-1.5,0.7-1.5,1.5s0.7,1.5,1.5,1.5C-25.3,57.1-24.6,56.4-24.6,55.6
		z"/>
	<path fill="#FDF5E6" d="M-61-36.6c0-0.6,0.5-1.2,1.2-1.2s1.2,0.5,1.2,1.2s-0.5,1.2-1.2,1.2S-61-35.9-61-36.6z"/>
	<path fill="#FDF5E6" d="M51.7,19.2c0-0.9-0.7-1.5-1.5-1.5s-1.5,0.7-1.5,1.5s0.7,1.5,1.5,1.5S51.7,20,51.7,19.2z"/>
</symbol>
<symbol  id="star" viewBox="-69.6 -59.7 139.1 119.4">
	<path fill="#FDF5E6" d="M-48.1-34.8c0-2.3-1.8-4.1-4.1-4.1c-2.3,0-4.1,1.8-4.1,4.1s1.8,4.1,4.1,4.1C-49.9-30.7-48.1-32.5-48.1-34.8
		z"/>
	<path fill="#FDF5E6" d="M30-56.3c0-1.9-1.5-3.4-3.4-3.4c-1.9,0-3.4,1.5-3.4,3.4s1.5,3.4,3.4,3.4C28.5-52.9,30-54.4,30-56.3z"/>
	<path fill="#FDF5E6" d="M1,15.2C1,14,0,13-1.2,13s-2.2,1-2.2,2.2s1,2.2,2.2,2.2S1,16.4,1,15.2z"/>
	<path fill="#FDF5E6" d="M69.6,33.8c0-1.9-1.5-3.4-3.4-3.4s-3.4,1.5-3.4,3.4c0,1.9,1.5,3.4,3.4,3.4S69.6,35.6,69.6,33.8z"/>
	<path fill="#FDF5E6" d="M-64.1,40.9c0-1.5-1.2-2.7-2.7-2.7c-1.5,0-2.7,1.2-2.7,2.7s1.2,2.7,2.7,2.7C-65.3,43.7-64.1,42.4-64.1,40.9
		z"/>
	<path fill="#FDF5E6" d="M12.3,58.1c0-0.8-0.7-1.5-1.5-1.5c-0.8,0-1.5,0.7-1.5,1.5s0.7,1.5,1.5,1.5C11.6,59.7,12.3,59,12.3,58.1z"/>
	<path fill="#FDF5E6" d="M-57.3-5.5c0-1.5,1.2-2.7,2.7-2.7s2.7,1.2,2.7,2.7s-1.2,2.7-2.7,2.7S-57.3-3.9-57.3-5.5z"/>
	<path fill="#FDF5E6" d="M16.7-25.2c0-0.8-0.6-1.4-1.4-1.4c-0.8,0-1.4,0.6-1.4,1.4c0,0.8,0.6,1.4,1.4,1.4
		C16.1-23.9,16.7-24.5,16.7-25.2z"/>
</symbol>
<g>
	<g id="unified-object">
	
	<g>
		<defs>
			<polygon id="starclip" points="1500,0 1500,318.4 1311.9,391.5 1184.6,312.1 1086.4,373.3 967.3,290.4 889.6,344.5 750,247.2 
				605.4,348 522.7,290.4 371.3,395.7 285.4,342.1 199.2,395.8 0,318.4 0,0 		"/>
		</defs>
		<clipPath id="starclip_1_">
			<use xlink:href="#starclip"  overflow="visible"/>
		</clipPath>
		<g id="allstars">
			<animateTransform
            attributeName="transform"
            begin="0s"
            dur="720s"
            type="rotate"
            from="0 750 500"
            to="360 750 500"
            repeatCount="indefinite" 
        />
				<use xlink:href="#smallstars"  width="122" height="114.2" x="-61" y="-57.1" transform="matrix(-0.4498 0.8931 0.8931 0.4498 -70.1924 189.7069)" overflow="visible"/>
			
				<use xlink:href="#smallstars"  width="122" height="114.2" x="-61" y="-57.1" transform="matrix(0.7752 0.6317 0.6317 -0.7752 177.1214 -136.6084)" overflow="visible"/>
			
				<use xlink:href="#smallstars"  width="122" height="114.2" x="-61" y="-57.1" transform="matrix(-0.9648 0.2628 0.2628 0.9648 335.2717 82.3631)" overflow="visible"/>
			
				<use xlink:href="#smallstars"  width="122" height="114.2" x="-61" y="-57.1" transform="matrix(0.6028 0.7979 0.7979 -0.6028 396.7837 -7.5805)" overflow="visible"/>
			
				<use xlink:href="#smallstars"  width="122" height="114.2" x="-61" y="-57.1" transform="matrix(0.3505 -0.9366 -0.9366 -0.3505 345.4272 -42.9619)" overflow="visible"/>
			
				<use xlink:href="#smallstars"  width="122" height="114.2" x="-61" y="-57.1" transform="matrix(-0.6802 -0.733 -0.733 0.6802 33.6208 282.1477)" overflow="visible"/>
			
				<use xlink:href="#smallstars"  width="122" height="114.2" x="-61" y="-57.1" transform="matrix(-0.4263 -0.9046 -0.9046 0.4263 -48.4762 38.4771)" overflow="visible"/>
			
				<use xlink:href="#smallstars"  width="122" height="114.2" x="-61" y="-57.1" transform="matrix(-0.4985 -0.8669 -0.8669 0.4985 -231.627 158.0638)" overflow="visible"/>
			
				<use xlink:href="#smallstars"  width="122" height="114.2" x="-61" y="-57.1" transform="matrix(0.918 0.3965 0.3965 -0.918 110.5033 2.9587)" overflow="visible"/>
			
				<use xlink:href="#smallstars"  width="122" height="114.2" x="-61" y="-57.1" transform="matrix(-0.7697 0.6385 0.6385 0.7697 170.966 84.9691)" overflow="visible"/>
			
				<use xlink:href="#smallstars"  width="122" height="114.2" x="-61" y="-57.1" transform="matrix(-0.9685 0.2492 0.2492 0.9685 192.251 120.8458)" overflow="visible"/>
			
				<use xlink:href="#smallstars"  width="122" height="114.2" x="-61" y="-57.1" transform="matrix(-0.895 0.446 0.446 0.895 223.3916 130.8287)" overflow="visible"/>
			
				<use xlink:href="#smallstars"  width="122" height="114.2" x="-61" y="-57.1" transform="matrix(0.4732 0.881 0.881 -0.4732 413.7394 -46.1506)" overflow="visible"/>
			
				<use xlink:href="#smallstars"  width="122" height="114.2" x="-61" y="-57.1" transform="matrix(0.2431 0.97 0.97 -0.2431 609.6978 -127.0588)" overflow="visible"/>
			
				<use xlink:href="#smallstars"  width="122" height="114.2" x="-61" y="-57.1" transform="matrix(-0.13 0.9915 0.9915 0.13 1000.3964 -100.4133)" overflow="visible"/>
			
				<use xlink:href="#smallstars"  width="122" height="114.2" x="-61" y="-57.1" transform="matrix(-0.4208 0.9071 0.9071 0.4208 1082.1342 -19.516)" overflow="visible"/>
			
				<use xlink:href="#smallstars"  width="122" height="114.2" x="-61" y="-57.1" transform="matrix(-0.1744 0.9847 0.9847 0.1744 1173.3737 6.446)" overflow="visible"/>
			
				<use xlink:href="#smallstars"  width="122" height="114.2" x="-61" y="-57.1" transform="matrix(2.388246e-02 0.9997 0.9997 -2.388246e-02 1235.0259 26.7773)" overflow="visible"/>
			
				<use xlink:href="#smallstars"  width="122" height="114.2" x="-61" y="-57.1" transform="matrix(0.2574 0.9663 0.9663 -0.2574 1359.0686 22.6952)" overflow="visible"/>
			
				<use xlink:href="#smallstars"  width="122" height="114.2" x="-61" y="-57.1" transform="matrix(0.1828 0.9832 0.9832 -0.1828 1494.9805 11.3391)" overflow="visible"/>
			
				<use xlink:href="#smallstars"  width="122" height="114.2" x="-61" y="-57.1" transform="matrix(-7.253574e-02 0.9974 0.9974 7.253574e-02 1617.2915 -0.7507)" overflow="visible"/>
			
				<use xlink:href="#smallstars"  width="122" height="114.2" x="-61" y="-57.1" transform="matrix(-0.5174 0.8557 0.8557 0.5174 1710.6714 86.1833)" overflow="visible"/>
			
				<use xlink:href="#smallstars"  width="122" height="114.2" x="-61" y="-57.1" transform="matrix(-0.9404 0.3401 0.3401 0.9404 1740.9614 232.3223)" overflow="visible"/>
			
				<use xlink:href="#smallstars"  width="122" height="114.2" x="-61" y="-57.1" transform="matrix(-0.7179 -0.6961 -0.6961 0.7179 1664.1315 330.7017)" overflow="visible"/>
			
				<use xlink:href="#smallstars"  width="122" height="114.2" x="-61" y="-57.1" transform="matrix(0.3382 -0.9411 -0.9411 -0.3382 1541.3488 251.0482)" overflow="visible"/>
			
				<use xlink:href="#smallstars"  width="122" height="114.2" x="-61" y="-57.1" transform="matrix(0.2825 -0.9593 -0.9593 -0.2825 1439.2957 188.6393)" overflow="visible"/>
			
				<use xlink:href="#smallstars"  width="122" height="114.2" x="-61" y="-57.1" transform="matrix(-0.2644 -0.9644 -0.9644 0.2644 1249.6036 256.3363)" overflow="visible"/>
			
				<use xlink:href="#smallstars"  width="122" height="114.2" x="-61" y="-57.1" transform="matrix(0.1445 -0.9895 -0.9895 -0.1445 1070.9667 205.4031)" overflow="visible"/>
			
				<use xlink:href="#smallstars"  width="122" height="114.2" x="-61" y="-57.1" transform="matrix(0.1859 -0.9826 -0.9826 -0.1859 895.758 184.6176)" overflow="visible"/>
			
				<use xlink:href="#smallstars"  width="122" height="114.2" x="-61" y="-57.1" transform="matrix(-0.439 -0.8985 -0.8985 0.439 422.8976 206.2346)" overflow="visible"/>
			
				<use xlink:href="#smallstars"  width="122" height="114.2" x="-61" y="-57.1" transform="matrix(4.371139e-08 -1 -1 -4.371139e-08 -220.343 -31.1421)" overflow="visible"/>
			
				<use xlink:href="#star"  width="139.1" height="119.4" x="-69.6" y="-59.7" transform="matrix(-0.9487 -0.3162 -0.3162 0.9487 -145.8755 107.6152)" overflow="visible"/>
			
				<use xlink:href="#star"  width="139.1" height="119.4" x="-69.6" y="-59.7" transform="matrix(-0.9762 -0.2169 -0.2169 0.9762 1591.4659 33.0228)" overflow="visible"/>
			
				<use xlink:href="#star"  width="139.1" height="119.4" x="-69.6" y="-59.7" transform="matrix(-9.480905e-02 -0.9955 -0.9955 9.480905e-02 1435.6912 65.7299)" overflow="visible"/>
			
				<use xlink:href="#star"  width="139.1" height="119.4" x="-69.6" y="-59.7" transform="matrix(-0.9254 0.3791 0.3791 0.9254 1508.7076 299.8342)" overflow="visible"/>
			
				<use xlink:href="#star"  width="139.1" height="119.4" x="-69.6" y="-59.7" transform="matrix(0.2595 -0.9658 -0.9658 -0.2595 1378.1217 266.7548)" overflow="visible"/>
			
				<use xlink:href="#star"  width="139.1" height="119.4" x="-69.6" y="-59.7" transform="matrix(-0.4594 -0.8882 -0.8882 0.4594 691.3687 -94.4193)" overflow="visible"/>
			
				<use xlink:href="#star"  width="139.1" height="119.4" x="-69.6" y="-59.7" transform="matrix(-0.9864 0.1644 0.1644 0.9864 791.7065 31.1035)" overflow="visible"/>
			
				<use xlink:href="#star"  width="139.1" height="119.4" x="-69.6" y="-59.7" transform="matrix(-0.9929 0.1191 0.1191 0.9929 877.9455 123.6186)" overflow="visible"/>
			
				<use xlink:href="#star"  width="139.1" height="119.4" x="-69.6" y="-59.7" transform="matrix(-0.9648 -0.2631 -0.2631 0.9648 860.2239 167.1271)" overflow="visible"/>
			
				<use xlink:href="#star"  width="139.1" height="119.4" x="-69.6" y="-59.7" transform="matrix(-0.3162 -0.9487 -0.9487 0.3162 791.442 154.5191)" overflow="visible"/>
			
				<use xlink:href="#star"  width="139.1" height="119.4" x="-69.6" y="-59.7" transform="matrix(4.371139e-08 -1 -1 -4.371139e-08 626.8744 112.0607)" overflow="visible"/>
			
				<use xlink:href="#star"  width="139.1" height="119.4" x="-69.6" y="-59.7" transform="matrix(0.3162 -0.9487 -0.9487 -0.3162 543.1995 86.6016)" overflow="visible"/>
			
				<use xlink:href="#star"  width="139.1" height="119.4" x="-69.6" y="-59.7" transform="matrix(-8.304544e-02 -0.9965 -0.9965 8.304544e-02 486.3483 79.4628)" overflow="visible"/>
			
				<use xlink:href="#star"  width="139.1" height="119.4" x="-69.6" y="-59.7" transform="matrix(-0.8849 -0.4657 -0.4657 0.8849 473.3021 141.9556)" overflow="visible"/>
			
				<use xlink:href="#smallstars"  width="122" height="114.2" x="-61" y="-57.1" transform="matrix(-0.9459 0.3244 0.3244 0.9459 950.8848 0.6372)" overflow="visible"/>
			
				<use xlink:href="#smallstars"  width="122" height="114.2" x="-61" y="-57.1" transform="matrix(-0.8838 -0.4679 -0.4679 0.8838 726.0884 108.3894)" overflow="visible"/>
			
				<use xlink:href="#smallstars"  width="122" height="114.2" x="-61" y="-57.1" transform="matrix(-0.4008 -0.9162 -0.9162 0.4008 545.0131 134.8645)" overflow="visible"/>
			
				<use xlink:href="#smallstars"  width="122" height="114.2" x="-61" y="-57.1" transform="matrix(0.9999 -1.395278e-02 -1.395278e-02 -0.9999 502.0463 13.5324)" overflow="visible"/>
			
				<use xlink:href="#smallstars"  width="122" height="114.2" x="-61" y="-57.1" transform="matrix(0.9631 0.269 0.269 -0.9631 537.6855 -75.9838)" overflow="visible"/>
			
				<use xlink:href="#smallstars"  width="122" height="114.2" x="-61" y="-57.1" transform="matrix(-0.9865 0.1638 0.1638 0.9865 553.1152 39.9524)" overflow="visible"/>
			
				<use xlink:href="#smallstars"  width="122" height="114.2" x="-61" y="-57.1" transform="matrix(0.961 0.2764 0.2764 -0.961 568.9101 -144.9557)" overflow="visible"/>
			
				<use xlink:href="#smallstars"  width="122" height="114.2" x="-61" y="-57.1" transform="matrix(0.9778 0.2095 0.2095 -0.9778 608.1409 -237.1507)" overflow="visible"/>
			
				<use xlink:href="#smallstars"  width="122" height="114.2" x="-61" y="-57.1" transform="matrix(-1 0 0 1 639.9524 -254.2592)" overflow="visible"/>
			
				<use xlink:href="#smallstars"  width="122" height="114.2" x="-61" y="-57.1" transform="matrix(-0.9487 0.3162 0.3162 0.9487 626.9132 -183.186)" overflow="visible"/>
			
				<use xlink:href="#smallstars"  width="122" height="114.2" x="-61" y="-57.1" transform="matrix(-0.9988 -4.823847e-02 -4.823847e-02 0.9988 650.7877 -56.1663)" overflow="visible"/>
			
				<use xlink:href="#smallstars"  width="122" height="114.2" x="-61" y="-57.1" transform="matrix(-0.7942 0.6077 0.6077 0.7942 710.9167 31.8681)" overflow="visible"/>
			
				<use xlink:href="#smallstars"  width="122" height="114.2" x="-61" y="-57.1" transform="matrix(-0.3739 0.9275 0.9275 0.3739 926.5464 42.9599)" overflow="visible"/>
			
				<use xlink:href="#smallstars"  width="122" height="114.2" x="-61" y="-57.1" transform="matrix(0.4304 0.9027 0.9027 -0.4304 997.1887 -15.6025)" overflow="visible"/>
			
				<use xlink:href="#smallstars"  width="122" height="114.2" x="-61" y="-57.1" transform="matrix(-0.9993 3.723034e-02 3.723034e-02 0.9993 993.9919 27.6922)" overflow="visible"/>
			
				<use xlink:href="#smallstars"  width="122" height="114.2" x="-61" y="-57.1" transform="matrix(0.9222 0.3868 0.3868 -0.9222 760.7217 21.9091)" overflow="visible"/>
			
				<use xlink:href="#smallstars"  width="122" height="114.2" x="-61" y="-57.1" transform="matrix(0.9585 0.2851 0.2851 -0.9585 770.3599 -64.2971)" overflow="visible"/>
			
				<use xlink:href="#smallstars"  width="122" height="114.2" x="-61" y="-57.1" transform="matrix(-0.9433 0.3321 0.3321 0.9433 805.8813 -86.1413)" overflow="visible"/>
			
				<use xlink:href="#smallstars"  width="122" height="114.2" x="-61" y="-57.1" transform="matrix(-0.9738 -0.2276 -0.2276 0.9738 854.4854 74.3609)" overflow="visible"/>
			
				<use xlink:href="#smallstars"  width="122" height="114.2" x="-61" y="-57.1" transform="matrix(-0.9656 -0.26 -0.26 0.9656 827.8128 285.7903)" overflow="visible"/>
			
				<use xlink:href="#smallstars"  width="122" height="114.2" x="-61" y="-57.1" transform="matrix(-0.5547 -0.8321 -0.8321 0.5547 734.3805 282.0128)" overflow="visible"/>
			
				<use xlink:href="#smallstars"  width="122" height="114.2" x="-61" y="-57.1" transform="matrix(0.9637 0.267 0.267 -0.9637 811.2261 78.7634)" overflow="visible"/>
			
				<use xlink:href="#smallstars"  width="122" height="114.2" x="-61" y="-57.1" transform="matrix(0.8377 0.5461 0.5461 -0.8377 824.6179 -49.3097)" overflow="visible"/>
			
				<use xlink:href="#smallstars"  width="122" height="114.2" x="-61" y="-57.1" transform="matrix(-0.3388 -0.9409 -0.9409 0.3388 731.5699 -27.6038)" overflow="visible"/>
			
				<use xlink:href="#smallstars"  width="122" height="114.2" x="-61" y="-57.1" transform="matrix(-0.9611 -0.2761 -0.2761 0.9611 670.7322 60.2845)" overflow="visible"/>
			
				<use xlink:href="#smallstars"  width="122" height="114.2" x="-61" y="-57.1" transform="matrix(-0.9328 -0.3604 -0.3604 0.9328 614.356 211.8769)" overflow="visible"/>
			
				<use xlink:href="#smallstars"  width="122" height="114.2" x="-61" y="-57.1" transform="matrix(0.8321 0.5547 0.5547 -0.8321 688.5208 148.1313)" overflow="visible"/>
			
				<use xlink:href="#smallstars"  width="122" height="114.2" x="-61" y="-57.1" transform="matrix(0.848 0.5299 0.5299 -0.848 857.7211 -80.669)" overflow="visible"/>
			
				<use xlink:href="#smallstars"  width="122" height="114.2" x="-61" y="-57.1" transform="matrix(0.9762 -0.2169 -0.2169 -0.9762 784.6628 -144.2268)" overflow="visible"/>
			
				<use xlink:href="#smallstars"  width="122" height="114.2" x="-61" y="-57.1" transform="matrix(-0.9236 0.3834 0.3834 0.9236 793.225 -10.5348)" overflow="visible"/>
			
				<use xlink:href="#smallstars"  width="122" height="114.2" x="-61" y="-57.1" transform="matrix(-0.9772 -0.2124 -0.2124 0.9772 761.5474 152.2941)" overflow="visible"/>
			
				<use xlink:href="#smallstars"  width="122" height="114.2" x="-61" y="-57.1" transform="matrix(0.986 0.1667 0.1667 -0.986 833.6329 -125.2512)" overflow="visible"/>
			
				<use xlink:href="#smallstars"  width="122" height="114.2" x="-61" y="-57.1" transform="matrix(0.9487 -0.3162 -0.3162 -0.9487 859.4239 -155.5676)" overflow="visible"/>
			
				<use xlink:href="#smallstars"  width="122" height="114.2" x="-61" y="-57.1" transform="matrix(-0.8755 0.4832 0.4832 0.8755 909.3564 -67.0554)" overflow="visible"/>
			
				<use xlink:href="#smallstars"  width="122" height="114.2" x="-61" y="-57.1" transform="matrix(-0.959 -0.2833 -0.2833 0.959 958.8065 105.824)" overflow="visible"/>
			
				<use xlink:href="#smallstars"  width="122" height="114.2" x="-61" y="-57.1" transform="matrix(-0.875 -0.4841 -0.4841 0.875 724.6657 236.8986)" overflow="visible"/>
			
				<use xlink:href="#smallstars"  width="122" height="114.2" x="-61" y="-57.1" transform="matrix(0.9548 0.2973 0.2973 -0.9548 949.2173 148.1616)" overflow="visible"/>
			
				<use xlink:href="#smallstars"  width="122" height="114.2" x="-61" y="-57.1" transform="matrix(0.9999 1.723886e-02 1.723886e-02 -0.9999 909.6434 -191.469)" overflow="visible"/>
			
				<use xlink:href="#smallstars"  width="122" height="114.2" x="-61" y="-57.1" transform="matrix(0.9988 4.993766e-02 4.993766e-02 -0.9988 871.6182 -274.7644)" overflow="visible"/>
			
				<use xlink:href="#smallstars"  width="122" height="114.2" x="-61" y="-57.1" transform="matrix(-0.9648 -0.2631 -0.2631 0.9648 834.2906 -241.6075)" overflow="visible"/>
			
				<use xlink:href="#smallstars"  width="122" height="114.2" x="-61" y="-57.1" transform="matrix(-0.9999 1.653611e-02 1.653611e-02 0.9999 872.7471 22.746)" overflow="visible"/>
			
				<use xlink:href="#smallstars"  width="122" height="114.2" x="-61" y="-57.1" transform="matrix(-0.9395 -0.3426 -0.3426 0.9395 743.1873 356.1025)" overflow="visible"/>
			
				<use xlink:href="#smallstars"  width="122" height="114.2" x="-61" y="-57.1" transform="matrix(0.9195 0.3931 0.3931 -0.9195 907.4315 -132.7116)" overflow="visible"/>
			
				<use xlink:href="#smallstars"  width="122" height="114.2" x="-61" y="-57.1" transform="matrix(-0.9701 -0.2425 -0.2425 0.9701 869.7819 -317.5959)" overflow="visible"/>
			
				<use xlink:href="#smallstars"  width="122" height="114.2" x="-61" y="-57.1" transform="matrix(-0.9961 -8.789385e-02 -8.789385e-02 0.9961 948.2092 -161.1554)" overflow="visible"/>
			
				<use xlink:href="#smallstars"  width="122" height="114.2" x="-61" y="-57.1" transform="matrix(-0.9411 -0.3381 -0.3381 0.9411 956.4625 66.0256)" overflow="visible"/>
			
				<use xlink:href="#smallstars"  width="122" height="114.2" x="-61" y="-57.1" transform="matrix(-0.9455 -0.3255 -0.3255 0.9455 716.1436 450.6528)" overflow="visible"/>
			
				<use xlink:href="#smallstars"  width="122" height="114.2" x="-61" y="-57.1" transform="matrix(0.8779 0.4789 0.4789 -0.8779 879.3795 324.9224)" overflow="visible"/>
			
				<use xlink:href="#smallstars"  width="122" height="114.2" x="-61" y="-57.1" transform="matrix(0.9939 0.1104 0.1104 -0.9939 865.244 -202.6888)" overflow="visible"/>
			
				<use xlink:href="#star"  width="139.1" height="119.4" x="-69.6" y="-59.7" transform="matrix(-0.9978 -6.651905e-02 -6.651905e-02 0.9978 886.8878 -100.9736)" overflow="visible"/>
			
				<use xlink:href="#star"  width="139.1" height="119.4" x="-69.6" y="-59.7" transform="matrix(-0.9773 -0.2118 -0.2118 0.9773 738.3429 177.8433)" overflow="visible"/>
			
				<use xlink:href="#star"  width="139.1" height="119.4" x="-69.6" y="-59.7" transform="matrix(0.938 0.3467 0.3467 -0.938 788.8262 266.8759)" overflow="visible"/>
			
				<use xlink:href="#star"  width="139.1" height="119.4" x="-69.6" y="-59.7" transform="matrix(0.9855 0.1694 0.1694 -0.9855 789.1313 31.7521)" overflow="visible"/>
			
				<use xlink:href="#star"  width="139.1" height="119.4" x="-69.6" y="-59.7" transform="matrix(0.9963 -8.540110e-02 -8.540110e-02 -0.9963 725.3333 -204.4875)" overflow="visible"/>
			
				<use xlink:href="#star"  width="139.1" height="119.4" x="-69.6" y="-59.7" transform="matrix(0.9943 -0.1065 -0.1065 -0.9943 735.7104 -315.1921)" overflow="visible"/>
			
				<use xlink:href="#star"  width="139.1" height="119.4" x="-69.6" y="-59.7" transform="matrix(0.9916 0.1293 0.1293 -0.9916 776.9724 -382.7558)" overflow="visible"/>
			
				<use xlink:href="#star"  width="139.1" height="119.4" x="-69.6" y="-59.7" transform="matrix(-1 0 0 1 731.475 -379.4558)" overflow="visible"/>
			
				<use xlink:href="#star"  width="139.1" height="119.4" x="-69.6" y="-59.7" transform="matrix(-0.9833 -0.1821 -0.1821 0.9833 404.5289 -115.4479)" overflow="visible"/>
			
				<use xlink:href="#star"  width="139.1" height="119.4" x="-69.6" y="-59.7" transform="matrix(-0.9918 0.1277 0.1277 0.9918 1246.5721 373.3475)" overflow="visible"/>
			
				<use xlink:href="#star"  width="139.1" height="119.4" x="-69.6" y="-59.7" transform="matrix(0.5767 0.817 0.817 -0.5767 1040.1852 143.367)" overflow="visible"/>
			
				<use xlink:href="#smallstars"  width="122" height="114.2" x="-61" y="-57.1" transform="matrix(-0.7729 0.6345 0.6345 0.7729 -111.0066 -58.7626)" overflow="visible"/>
			
				<use xlink:href="#smallstars"  width="122" height="114.2" x="-61" y="-57.1" transform="matrix(-0.9563 -0.2922 -0.2922 0.9563 -90.1805 74.4898)" overflow="visible"/>
			
				<use xlink:href="#smallstars"  width="122" height="114.2" x="-61" y="-57.1" transform="matrix(0.5446 0.8387 0.8387 -0.5446 86.6845 -67.9509)" overflow="visible"/>
			
				<use xlink:href="#smallstars"  width="122" height="114.2" x="-61" y="-57.1" transform="matrix(-0.5099 0.8602 0.8602 0.5099 146.4388 76.7528)" overflow="visible"/>
			
				<use xlink:href="#smallstars"  width="122" height="114.2" x="-61" y="-57.1" transform="matrix(0.9829 0.1841 0.1841 -0.9829 144.1051 -38.3984)" overflow="visible"/>
			
				<use xlink:href="#smallstars"  width="122" height="114.2" x="-61" y="-57.1" transform="matrix(0.7295 -0.684 -0.684 -0.7295 1233.6926 96.5643)" overflow="visible"/>
			
				<use xlink:href="#smallstars"  width="122" height="114.2" x="-61" y="-57.1" transform="matrix(0.4458 0.8951 0.8951 -0.4458 1442.5801 3.7634)" overflow="visible"/>
			
				<use xlink:href="#smallstars"  width="122" height="114.2" x="-61" y="-57.1" transform="matrix(4.371139e-08 -1 -1 -4.371139e-08 133.3034 331.3696)" overflow="visible"/>
			
				<use xlink:href="#smallstars"  width="122" height="114.2" x="-61" y="-57.1" transform="matrix(0.7994 -0.6007 -0.6007 -0.7994 107.5915 277.9996)" overflow="visible"/>
			
				<use xlink:href="#smallstars"  width="122" height="114.2" x="-61" y="-57.1" transform="matrix(0.8481 0.5298 0.5298 -0.8481 57.4201 170.7229)" overflow="visible"/>
			
				<use xlink:href="#smallstars"  width="122" height="114.2" x="-61" y="-57.1" transform="matrix(0.8849 0.4658 0.4658 -0.8849 51.9666 111.6971)" overflow="visible"/>
			
				<use xlink:href="#smallstars"  width="122" height="114.2" x="-61" y="-57.1" transform="matrix(0.9647 -0.2634 -0.2634 -0.9647 65.9414 52.2369)" overflow="visible"/>
			
				<use xlink:href="#smallstars"  width="122" height="114.2" x="-61" y="-57.1" transform="matrix(0.8491 -0.5282 -0.5282 -0.8491 62.2748 -7.5908)" overflow="visible"/>
			
				<use xlink:href="#smallstars"  width="122" height="114.2" x="-61" y="-57.1" transform="matrix(-0.8313 0.5559 0.5559 0.8313 198.0063 11.4029)" overflow="visible"/>
			
				<use xlink:href="#smallstars"  width="122" height="114.2" x="-61" y="-57.1" transform="matrix(-0.5145 -0.8575 -0.8575 0.5145 1666.4062 213.1602)" overflow="visible"/>
			
				<use xlink:href="#smallstars"  width="122" height="114.2" x="-61" y="-57.1" transform="matrix(-0.6585 -0.7526 -0.7526 0.6585 1622.014 260.2354)" overflow="visible"/>
			
				<use xlink:href="#smallstars"  width="122" height="114.2" x="-61" y="-57.1" transform="matrix(-0.9817 -0.1905 -0.1905 0.9817 1268.4128 177.3944)" overflow="visible"/>
			
				<use xlink:href="#smallstars"  width="122" height="114.2" x="-61" y="-57.1" transform="matrix(-0.9644 0.2644 0.2644 0.9644 1331.6849 349.8367)" overflow="visible"/>
			
				<use xlink:href="#smallstars"  width="122" height="114.2" x="-61" y="-57.1" transform="matrix(0.1961 -0.9806 -0.9806 -0.1961 1663.1016 128.7404)" overflow="visible"/>
			
				<use xlink:href="#smallstars"  width="122" height="114.2" x="-61" y="-57.1" transform="matrix(-0.1569 -0.9876 -0.9876 0.1569 1598.696 144.9823)" overflow="visible"/>
			
				<use xlink:href="#smallstars"  width="122" height="114.2" x="-61" y="-57.1" transform="matrix(0.9487 0.3162 0.3162 -0.9487 1616.501 93.7598)" overflow="visible"/>
			
				<use xlink:href="#smallstars"  width="122" height="114.2" x="-61" y="-57.1" transform="matrix(-0.7261 -0.6875 -0.6875 0.7261 1541.594 181.9872)" overflow="visible"/>
			
				<use xlink:href="#smallstars"  width="122" height="114.2" x="-61" y="-57.1" transform="matrix(0.2778 -0.9606 -0.9606 -0.2778 1323.157 155.1965)" overflow="visible"/>
			
				<use xlink:href="#smallstars"  width="122" height="114.2" x="-61" y="-57.1" transform="matrix(-0.673 -0.7397 -0.7397 0.673 1217.4818 224.237)" overflow="visible"/>
			
				<use xlink:href="#smallstars"  width="122" height="114.2" x="-61" y="-57.1" transform="matrix(-0.1011 0.9949 0.9949 0.1011 1302.4836 245.4849)" overflow="visible"/>
			
				<use xlink:href="#smallstars"  width="122" height="114.2" x="-61" y="-57.1" transform="matrix(0.9918 -0.1281 -0.1281 -0.9918 1266.187 135.6063)" overflow="visible"/>
			
				<use xlink:href="#smallstars"  width="122" height="114.2" x="-61" y="-57.1" transform="matrix(-0.5247 -0.8513 -0.8513 0.5247 1169.0731 196.9949)" overflow="visible"/>
			
				<use xlink:href="#smallstars"  width="122" height="114.2" x="-61" y="-57.1" transform="matrix(-0.9055 -0.4244 -0.4244 0.9055 1125.0927 63.1733)" overflow="visible"/>
			
				<use xlink:href="#smallstars"  width="122" height="114.2" x="-61" y="-57.1" transform="matrix(-0.1888 0.982 0.982 0.1888 1214.97 139.9899)" overflow="visible"/>
			
				<use xlink:href="#smallstars"  width="122" height="114.2" x="-61" y="-57.1" transform="matrix(-0.5812 0.8137 0.8137 0.5812 244.2895 -71.1798)" overflow="visible"/>
			
				<use xlink:href="#smallstars"  width="122" height="114.2" x="-61" y="-57.1" transform="matrix(-0.9062 0.4229 0.4229 0.9062 259.9214 -16.0957)" overflow="visible"/>
			
				<use xlink:href="#smallstars"  width="122" height="114.2" x="-61" y="-57.1" transform="matrix(-0.9654 0.2609 0.2609 0.9654 269.0921 77.24)" overflow="visible"/>
			
				<use xlink:href="#smallstars"  width="122" height="114.2" x="-61" y="-57.1" transform="matrix(-0.9996 2.776702e-02 2.776702e-02 0.9996 257.9969 172.6127)" overflow="visible"/>
			
				<use xlink:href="#smallstars"  width="122" height="114.2" x="-61" y="-57.1" transform="matrix(-0.9996 -2.939910e-02 -2.939910e-02 0.9996 248.2838 268.5583)" overflow="visible"/>
			
				<use xlink:href="#smallstars"  width="122" height="114.2" x="-61" y="-57.1" transform="matrix(-1 0 0 1 245.5048 330.7964)" overflow="visible"/>
			
				<use xlink:href="#smallstars"  width="122" height="114.2" x="-61" y="-57.1" transform="matrix(-0.9533 -0.3019 -0.3019 0.9533 1156.8942 97.3001)" overflow="visible"/>
			
				<use xlink:href="#smallstars"  width="122" height="114.2" x="-61" y="-57.1" transform="matrix(-0.9666 -0.2564 -0.2564 0.9666 1138.5186 280.6826)" overflow="visible"/>
			
				<use xlink:href="#smallstars"  width="122" height="114.2" x="-61" y="-57.1" transform="matrix(-0.9864 -0.1644 -0.1644 0.9864 1121.8027 342.0404)" overflow="visible"/>
			
				<use xlink:href="#smallstars"  width="122" height="114.2" x="-61" y="-57.1" transform="matrix(-0.9782 -0.2075 -0.2075 0.9782 1113.2242 139.085)" overflow="visible"/>
			
				<use xlink:href="#smallstars"  width="122" height="114.2" x="-61" y="-57.1" transform="matrix(-0.9487 -0.3162 -0.3162 0.9487 1096.7179 231.0343)" overflow="visible"/>
			
				<use xlink:href="#smallstars"  width="122" height="114.2" x="-61" y="-57.1" transform="matrix(-0.9975 -7.124709e-02 -7.124709e-02 0.9975 1076.4424 288.4921)" overflow="visible"/>
			
				<use xlink:href="#smallstars"  width="122" height="114.2" x="-61" y="-57.1" transform="matrix(-0.9939 0.1104 0.1104 0.9939 684.5351 -22.3192)" overflow="visible"/>
			
				<use xlink:href="#smallstars"  width="122" height="114.2" x="-61" y="-57.1" transform="matrix(-0.9844 0.1758 0.1758 0.9844 769.9719 85.3306)" overflow="visible"/>
			
				<use xlink:href="#smallstars"  width="122" height="114.2" x="-61" y="-57.1" transform="matrix(-0.9912 0.1322 0.1322 0.9912 931.3504 222.1313)" overflow="visible"/>
			
				<use xlink:href="#smallstars"  width="122" height="114.2" x="-61" y="-57.1" transform="matrix(-1 0 0 1 928.2432 265.683)" overflow="visible"/>
			
				<use xlink:href="#smallstars"  width="122" height="114.2" x="-61" y="-57.1" transform="matrix(0.9961 8.789385e-02 8.789385e-02 -0.9961 914.2182 123.1622)" overflow="visible"/>
			
				<use xlink:href="#smallstars"  width="122" height="114.2" x="-61" y="-57.1" transform="matrix(1 0 0 -1 829.9821 18.739)" overflow="visible"/>
			
				<use xlink:href="#smallstars"  width="122" height="114.2" x="-61" y="-57.1" transform="matrix(0.9762 -0.2169 -0.2169 -0.9762 756.9326 -105.3629)" overflow="visible"/>
			
				<use xlink:href="#smallstars"  width="122" height="114.2" x="-61" y="-57.1" transform="matrix(0.9923 -0.124 -0.124 -0.9923 812.1067 -177.2392)" overflow="visible"/>
			
				<use xlink:href="#smallstars"  width="122" height="114.2" x="-61" y="-57.1" transform="matrix(-0.9671 0.2545 0.2545 0.9671 909.0742 -19.5271)" overflow="visible"/>
			
				<use xlink:href="#smallstars"  width="122" height="114.2" x="-61" y="-57.1" transform="matrix(-0.7071 -0.7071 -0.7071 0.7071 680.3818 -228.8364)" overflow="visible"/>
			
				<use xlink:href="#smallstars"  width="122" height="114.2" x="-61" y="-57.1" transform="matrix(-1 0 0 1 671.8384 -175.0209)" overflow="visible"/>
			
				<use xlink:href="#smallstars"  width="122" height="114.2" x="-61" y="-57.1" transform="matrix(-0.9762 -0.2169 -0.2169 0.9762 654.3021 -121.4954)" overflow="visible"/>
			
				<use xlink:href="#smallstars"  width="122" height="114.2" x="-61" y="-57.1" transform="matrix(-0.9778 -0.2095 -0.2095 0.9778 611.9308 -67.1425)" overflow="visible"/>
			
				<use xlink:href="#smallstars"  width="122" height="114.2" x="-61" y="-57.1" transform="matrix(-0.9806 -0.1961 -0.1961 0.9806 619.0321 3.7662)" overflow="visible"/>
			
				<use xlink:href="#smallstars"  width="122" height="114.2" x="-61" y="-57.1" transform="matrix(-0.9983 -5.872206e-02 -5.872206e-02 0.9983 625.332 62.6596)" overflow="visible"/>
			
				<use xlink:href="#smallstars"  width="122" height="114.2" x="-61" y="-57.1" transform="matrix(-1 0 0 1 646.9185 135.8006)" overflow="visible"/>
			
				<use xlink:href="#smallstars"  width="122" height="114.2" x="-61" y="-57.1" transform="matrix(-0.9985 -5.547006e-02 -5.547006e-02 0.9985 672.3116 203.4645)" overflow="visible"/>
			
				<use xlink:href="#smallstars"  width="122" height="114.2" x="-61" y="-57.1" transform="matrix(-1 0 0 1 674.7336 252.3869)" overflow="visible"/>
			
				<use xlink:href="#smallstars"  width="122" height="114.2" x="-61" y="-57.1" transform="matrix(-0.9487 -0.3162 -0.3162 0.9487 712.6157 318.6205)" overflow="visible"/>
			
				<use xlink:href="#smallstars"  width="122" height="114.2" x="-61" y="-57.1" transform="matrix(-1 0 0 1 671.2333 297.6685)" overflow="visible"/>
			
				<use xlink:href="#smallstars"  width="122" height="114.2" x="-61" y="-57.1" transform="matrix(0.6 0.8 0.8 -0.6 780.5929 328.096)" overflow="visible"/>
			
				<use xlink:href="#smallstars"  width="122" height="114.2" x="-61" y="-57.1" transform="matrix(0.8872 0.4614 0.4614 -0.8872 779.5538 214.9254)" overflow="visible"/>
			
				<use xlink:href="#smallstars"  width="122" height="114.2" x="-61" y="-57.1" transform="matrix(0.9507 0.31 0.31 -0.9507 898.8523 62.5966)" overflow="visible"/>
			
				<use xlink:href="#smallstars"  width="122" height="114.2" x="-61" y="-57.1" transform="matrix(0.9939 0.1104 0.1104 -0.9939 957.8528 -53.7816)" overflow="visible"/>
			
				<use xlink:href="#smallstars"  width="122" height="114.2" x="-61" y="-57.1" transform="matrix(1 0 0 -1 947.6042 -104.1201)" overflow="visible"/>
			
				<use xlink:href="#smallstars"  width="122" height="114.2" x="-61" y="-57.1" transform="matrix(-0.9578 -0.2873 -0.2873 0.9578 866.3296 -27.2058)" overflow="visible"/>
			
				<use xlink:href="#smallstars"  width="122" height="114.2" x="-61" y="-57.1" transform="matrix(-0.9967 -8.081591e-02 -8.081591e-02 0.9967 839.5693 128.8538)" overflow="visible"/>
			
				<use xlink:href="#smallstars"  width="122" height="114.2" x="-61" y="-57.1" transform="matrix(-0.9829 -0.1843 -0.1843 0.9829 878.0989 269.6707)" overflow="visible"/>
			
				<use xlink:href="#smallstars"  width="122" height="114.2" x="-61" y="-57.1" transform="matrix(-0.9985 -5.547006e-02 -5.547006e-02 0.9985 848.2362 348.8384)" overflow="visible"/>
			
				<use xlink:href="#smallstars"  width="122" height="114.2" x="-61" y="-57.1" transform="matrix(1 0 0 -1 854.822 226.4926)" overflow="visible"/>
			
				<use xlink:href="#smallstars"  width="122" height="114.2" x="-61" y="-57.1" transform="matrix(0.9995 3.276932e-02 3.276932e-02 -0.9995 712.3271 -65.6266)" overflow="visible"/>
			
				<use xlink:href="#smallstars"  width="122" height="114.2" x="-61" y="-57.1" transform="matrix(1 0 0 -1 738.4983 -164.6742)" overflow="visible"/>
			
				<use xlink:href="#smallstars"  width="122" height="114.2" x="-61" y="-57.1" transform="matrix(0.8944 0.4472 0.4472 -0.8944 779.2302 -206.3104)" overflow="visible"/>
			
				<use xlink:href="#smallstars"  width="122" height="114.2" x="-61" y="-57.1" transform="matrix(-1 0 0 1 713.3481 -125.2698)" overflow="visible"/>
			
				<use xlink:href="#star"  width="139.1" height="119.4" x="-69.6" y="-59.7" transform="matrix(-0.9939 0.1104 0.1104 0.9939 583.3201 -41.9401)" overflow="visible"/>
			
				<use xlink:href="#star"  width="139.1" height="119.4" x="-69.6" y="-59.7" transform="matrix(-0.9769 -0.2137 -0.2137 0.9769 587.1876 62.9667)" overflow="visible"/>
			
				<use xlink:href="#star"  width="139.1" height="119.4" x="-69.6" y="-59.7" transform="matrix(-0.9701 -0.2425 -0.2425 0.9701 588.2544 161.006)" overflow="visible"/>
			
				<use xlink:href="#star"  width="139.1" height="119.4" x="-69.6" y="-59.7" transform="matrix(1 0 0 -1 585.1876 118.8587)" overflow="visible"/>
			
				<use xlink:href="#star"  width="139.1" height="119.4" x="-69.6" y="-59.7" transform="matrix(0.9395 0.3426 0.3426 -0.9395 741.2271 -250.0692)" overflow="visible"/>
			
				<use xlink:href="#star"  width="139.1" height="119.4" x="-69.6" y="-59.7" transform="matrix(0.9567 0.2912 0.2912 -0.9567 805.7173 -327.1924)" overflow="visible"/>
			
				<use xlink:href="#star"  width="139.1" height="119.4" x="-69.6" y="-59.7" transform="matrix(-1 0 0 1 795.3423 -277.1188)" overflow="visible"/>
			
				<use xlink:href="#star"  width="139.1" height="119.4" x="-69.6" y="-59.7" transform="matrix(-0.9678 -0.2516 -0.2516 0.9678 661.0108 1.5327)" overflow="visible"/>
			
				<use xlink:href="#star"  width="139.1" height="119.4" x="-69.6" y="-59.7" transform="matrix(-0.9751 -0.2216 -0.2216 0.9751 670.4446 118.9519)" overflow="visible"/>
			
				<use xlink:href="#star"  width="139.1" height="119.4" x="-69.6" y="-59.7" transform="matrix(-0.9762 0.2169 0.2169 0.9762 -19.6697 -204.9768)" overflow="visible"/>
			
				<use xlink:href="#star"  width="139.1" height="119.4" x="-69.6" y="-59.7" transform="matrix(-1 0 0 1 -25.1969 -113.7838)" overflow="visible"/>
			
				<use xlink:href="#star"  width="139.1" height="119.4" x="-69.6" y="-59.7" transform="matrix(-1 0 0 1 -24.4979 5.1926)" overflow="visible"/>
			
				<use xlink:href="#star"  width="139.1" height="119.4" x="-69.6" y="-59.7" transform="matrix(-0.9991 -4.343727e-02 -4.343727e-02 0.9991 -44.4677 125.79)" overflow="visible"/>
			
				<use xlink:href="#star"  width="139.1" height="119.4" x="-69.6" y="-59.7" transform="matrix(-0.8824 0.4706 0.4706 0.8824 -11.3228 226.7028)" overflow="visible"/>
			
				<use xlink:href="#star"  width="139.1" height="119.4" x="-69.6" y="-59.7" transform="matrix(-0.6459 0.7634 0.7634 0.6459 72.2919 336.8136)" overflow="visible"/>
			
				<use xlink:href="#star"  width="139.1" height="119.4" x="-69.6" y="-59.7" transform="matrix(0.8575 0.5145 0.5145 -0.8575 1787.4011 693.647)" overflow="visible"/>
			
				<use xlink:href="#star"  width="139.1" height="119.4" x="-69.6" y="-59.7" transform="matrix(0.5623 -0.8269 -0.8269 -0.5623 1715.4844 635.748)" overflow="visible"/>
			
				<use xlink:href="#star"  width="139.1" height="119.4" x="-69.6" y="-59.7" transform="matrix(0.2564 -0.9666 -0.9666 -0.2564 1562.0438 587.2162)" overflow="visible"/>
			
				<use xlink:href="#star"  width="139.1" height="119.4" x="-69.6" y="-59.7" transform="matrix(-0.1269 -0.9919 -0.9919 0.1269 1216.829 697.8057)" overflow="visible"/>
			
				<use xlink:href="#star"  width="139.1" height="119.4" x="-69.6" y="-59.7" transform="matrix(-0.7682 -0.6402 -0.6402 0.7682 648.9944 982.2151)" overflow="visible"/>
			
				<use xlink:href="#star"  width="139.1" height="119.4" x="-69.6" y="-59.7" transform="matrix(0.3162 -0.9487 -0.9487 -0.3162 340.8163 878.4887)" overflow="visible"/>
			
				<use xlink:href="#star"  width="139.1" height="119.4" x="-69.6" y="-59.7" transform="matrix(0.1203 -0.9927 -0.9927 -0.1203 227.9955 854.5784)" overflow="visible"/>
			
				<use xlink:href="#star"  width="139.1" height="119.4" x="-69.6" y="-59.7" transform="matrix(0.6644 -0.7474 -0.7474 -0.6644 191.2128 827.3287)" overflow="visible"/>
			
				<use xlink:href="#star"  width="139.1" height="119.4" x="-69.6" y="-59.7" transform="matrix(2.939910e-02 -0.9996 -0.9996 -2.939910e-02 173.2212 746.1946)" overflow="visible"/>
			
				<use xlink:href="#star"  width="139.1" height="119.4" x="-69.6" y="-59.7" transform="matrix(0.4763 -0.8793 -0.8793 -0.4763 -28.6004 769.426)" overflow="visible"/>
			
				<use xlink:href="#star"  width="139.1" height="119.4" x="-69.6" y="-59.7" transform="matrix(0.9839 -0.1789 -0.1789 -0.9839 -66.6338 700.6734)" overflow="visible"/>
			
				<use xlink:href="#star"  width="139.1" height="119.4" x="-69.6" y="-59.7" transform="matrix(0.2941 0.9558 0.9558 -0.2941 49.3632 697.6065)" overflow="visible"/>
			
				<use xlink:href="#star"  width="139.1" height="119.4" x="-69.6" y="-59.7" transform="matrix(0.7071 -0.7071 -0.7071 -0.7071 1.6877 712.3313)" overflow="visible"/>
			
				<use xlink:href="#star"  width="139.1" height="119.4" x="-69.6" y="-59.7" transform="matrix(1 0 0 -1 -27.6374 649.5211)" overflow="visible"/>
			
				<use xlink:href="#star"  width="139.1" height="119.4" x="-69.6" y="-59.7" transform="matrix(-0.7071 0.7071 0.7071 0.7071 9.7857 667.4078)" overflow="visible"/>
			
				<use xlink:href="#star"  width="139.1" height="119.4" x="-69.6" y="-59.7" transform="matrix(-0.8064 -0.5914 -0.5914 0.8064 360.2928 483.4658)" overflow="visible"/>
			
				<use xlink:href="#star"  width="139.1" height="119.4" x="-69.6" y="-59.7" transform="matrix(-0.9285 0.3714 0.3714 0.9285 389.0999 569.4001)" overflow="visible"/>
			
				<use xlink:href="#star"  width="139.1" height="119.4" x="-69.6" y="-59.7" transform="matrix(-0.7071 0.7071 0.7071 0.7071 488.3018 602.3455)" overflow="visible"/>
			
				<use xlink:href="#star"  width="139.1" height="119.4" x="-69.6" y="-59.7" transform="matrix(-0.6727 0.7399 0.7399 0.6727 551.9974 651.9885)" overflow="visible"/>
			
				<use xlink:href="#star"  width="139.1" height="119.4" x="-69.6" y="-59.7" transform="matrix(-0.9285 0.3714 0.3714 0.9285 588.8352 731.5458)" overflow="visible"/>
			
				<use xlink:href="#star"  width="139.1" height="119.4" x="-69.6" y="-59.7" transform="matrix(-0.8396 -0.5433 -0.5433 0.8396 513.317 804.6276)" overflow="visible"/>
			
				<use xlink:href="#star"  width="139.1" height="119.4" x="-69.6" y="-59.7" transform="matrix(-0.7071 -0.7071 -0.7071 0.7071 424.9745 836.7865)" overflow="visible"/>
			
				<use xlink:href="#star"  width="139.1" height="119.4" x="-69.6" y="-59.7" transform="matrix(-0.9701 0.2425 0.2425 0.9701 456.0238 902.3444)" overflow="visible"/>
			
				<use xlink:href="#star"  width="139.1" height="119.4" x="-69.6" y="-59.7" transform="matrix(-0.7071 0.7071 0.7071 0.7071 599.5118 991.7481)" overflow="visible"/>
			
				<use xlink:href="#star"  width="139.1" height="119.4" x="-69.6" y="-59.7" transform="matrix(-0.9487 0.3162 0.3162 0.9487 647.6336 1081.92)" overflow="visible"/>
			
				<use xlink:href="#star"  width="139.1" height="119.4" x="-69.6" y="-59.7" transform="matrix(-0.8882 -0.4594 -0.4594 0.8882 602.1066 1176.3514)" overflow="visible"/>
			
				<use xlink:href="#star"  width="139.1" height="119.4" x="-69.6" y="-59.7" transform="matrix(-0.5952 -0.8036 -0.8036 0.5952 501.8953 1222.2213)" overflow="visible"/>
			
				<use xlink:href="#star"  width="139.1" height="119.4" x="-69.6" y="-59.7" transform="matrix(0.6616 0.7498 0.7498 -0.6616 843.155 689.703)" overflow="visible"/>
			
				<use xlink:href="#star"  width="139.1" height="119.4" x="-69.6" y="-59.7" transform="matrix(0.5735 -0.8192 -0.8192 -0.5735 744.455 657.8752)" overflow="visible"/>
			
				<use xlink:href="#star"  width="139.1" height="119.4" x="-69.6" y="-59.7" transform="matrix(0.5547 -0.8321 -0.8321 -0.5547 631.08 598.9295)" overflow="visible"/>
			
				<use xlink:href="#star"  width="139.1" height="119.4" x="-69.6" y="-59.7" transform="matrix(0.9285 0.3714 0.3714 -0.9285 674.8132 568.4066)" overflow="visible"/>
			
				<use xlink:href="#star"  width="139.1" height="119.4" x="-69.6" y="-59.7" transform="matrix(-0.9701 0.2425 0.2425 0.9701 694.8653 697.9917)" overflow="visible"/>
			
				<use xlink:href="#star"  width="139.1" height="119.4" x="-69.6" y="-59.7" transform="matrix(-0.9398 0.3417 0.3417 0.9398 724.7396 758.3299)" overflow="visible"/>
			
				<use xlink:href="#smallstars"  width="122" height="114.2" x="-61" y="-57.1" transform="matrix(-0.3285 -0.9445 -0.9445 0.3285 879.4203 1235.1874)" overflow="visible"/>
			
				<use xlink:href="#smallstars"  width="122" height="114.2" x="-61" y="-57.1" transform="matrix(-0.5692 0.8222 0.8222 0.5692 1082.2081 1340.8049)" overflow="visible"/>
			
				<use xlink:href="#smallstars"  width="122" height="114.2" x="-61" y="-57.1" transform="matrix(0.9796 -0.2009 -0.2009 -0.9796 1052.0149 1055.4895)" overflow="visible"/>
			
				<use xlink:href="#smallstars"  width="122" height="114.2" x="-61" y="-57.1" transform="matrix(-0.5812 0.8137 0.8137 0.5812 1247.2733 1204.3688)" overflow="visible"/>
			
				<use xlink:href="#smallstars"  width="122" height="114.2" x="-61" y="-57.1" transform="matrix(0.2124 -0.9772 -0.9772 -0.2124 1064.207 1161.4171)" overflow="visible"/>
			
				<use xlink:href="#smallstars"  width="122" height="114.2" x="-61" y="-57.1" transform="matrix(0.7933 0.6088 0.6088 -0.7933 1365.4117 825.3264)" overflow="visible"/>
			
				<use xlink:href="#smallstars"  width="122" height="114.2" x="-61" y="-57.1" transform="matrix(-0.9791 0.2032 0.2032 0.9791 1386.8973 1221.9006)" overflow="visible"/>
			
				<use xlink:href="#smallstars"  width="122" height="114.2" x="-61" y="-57.1" transform="matrix(0.9929 0.1191 0.1191 -0.9929 1466.3525 1024.212)" overflow="visible"/>
			
				<use xlink:href="#smallstars"  width="122" height="114.2" x="-61" y="-57.1" transform="matrix(-0.1414 0.9899 0.9899 0.1414 1607.8307 1015.989)" overflow="visible"/>
			
				<use xlink:href="#smallstars"  width="122" height="114.2" x="-61" y="-57.1" transform="matrix(0.8437 -0.5369 -0.5369 -0.8437 1575.3483 933.4583)" overflow="visible"/>
			
				<use xlink:href="#smallstars"  width="122" height="114.2" x="-61" y="-57.1" transform="matrix(0.2747 -0.9615 -0.9615 -0.2747 1484.1774 916.3702)" overflow="visible"/>
			
				<use xlink:href="#smallstars"  width="122" height="114.2" x="-61" y="-57.1" transform="matrix(-0.1483 -0.9889 -0.9889 0.1483 1297.1547 972.6712)" overflow="visible"/>
			
				<use xlink:href="#smallstars"  width="122" height="114.2" x="-61" y="-57.1" transform="matrix(-0.5241 -0.8517 -0.8517 0.5241 1210.0938 1034.3749)" overflow="visible"/>
			
				<use xlink:href="#smallstars"  width="122" height="114.2" x="-61" y="-57.1" transform="matrix(-0.7926 -0.6097 -0.6097 0.7926 1118.4786 1136.431)" overflow="visible"/>
			
				<use xlink:href="#smallstars"  width="122" height="114.2" x="-61" y="-57.1" transform="matrix(-0.9363 -0.3511 -0.3511 0.9363 1072.6484 1209.5132)" overflow="visible"/>
			
				<use xlink:href="#smallstars"  width="122" height="114.2" x="-61" y="-57.1" transform="matrix(-1 0 0 1 1059.6434 1255.3044)" overflow="visible"/>
			
				<use xlink:href="#smallstars"  width="122" height="114.2" x="-61" y="-57.1" transform="matrix(0.3162 0.9487 0.9487 -0.3162 1121.6077 1235.6456)" overflow="visible"/>
			
				<use xlink:href="#smallstars"  width="122" height="114.2" x="-61" y="-57.1" transform="matrix(0.7348 0.6783 0.6783 -0.7348 1204.236 1122.0001)" overflow="visible"/>
			
				<use xlink:href="#smallstars"  width="122" height="114.2" x="-61" y="-57.1" transform="matrix(0.8321 0.5547 0.5547 -0.8321 1335.2129 941.6489)" overflow="visible"/>
			
				<use xlink:href="#smallstars"  width="122" height="114.2" x="-61" y="-57.1" transform="matrix(0.9255 0.3786 0.3786 -0.9255 1428.1132 778.9539)" overflow="visible"/>
			
				<use xlink:href="#smallstars"  width="122" height="114.2" x="-61" y="-57.1" transform="matrix(0.9983 5.872206e-02 5.872206e-02 -0.9983 1464.962 636.8398)" overflow="visible"/>
			
				<use xlink:href="#smallstars"  width="122" height="114.2" x="-61" y="-57.1" transform="matrix(0.3939 -0.9191 -0.9191 -0.3939 1413.62 608.8032)" overflow="visible"/>
			
				<use xlink:href="#smallstars"  width="122" height="114.2" x="-61" y="-57.1" transform="matrix(-0.2095 -0.9778 -0.9778 0.2095 1307.0889 683.023)" overflow="visible"/>
			
				<use xlink:href="#smallstars"  width="122" height="114.2" x="-61" y="-57.1" transform="matrix(-0.5647 -0.8253 -0.8253 0.5647 1108.7323 798.2804)" overflow="visible"/>
			
				<use xlink:href="#smallstars"  width="122" height="114.2" x="-61" y="-57.1" transform="matrix(-0.7071 -0.7071 -0.7071 0.7071 987.6537 930.3582)" overflow="visible"/>
			
				<use xlink:href="#smallstars"  width="122" height="114.2" x="-61" y="-57.1" transform="matrix(-0.7071 -0.7071 -0.7071 0.7071 842.0568 1051.7345)" overflow="visible"/>
			
				<use xlink:href="#smallstars"  width="122" height="114.2" x="-61" y="-57.1" transform="matrix(-0.848 -0.53 -0.53 0.848 793.3627 1128.2554)" overflow="visible"/>
			
				<use xlink:href="#smallstars"  width="122" height="114.2" x="-61" y="-57.1" transform="matrix(1 0 0 -1 771.2468 1099.2684)" overflow="visible"/>
			
				<use xlink:href="#smallstars"  width="122" height="114.2" x="-61" y="-57.1" transform="matrix(0.7682 0.6402 0.6402 -0.7682 889.1121 1002.6858)" overflow="visible"/>
			
				<use xlink:href="#smallstars"  width="122" height="114.2" x="-61" y="-57.1" transform="matrix(0.848 0.53 0.53 -0.848 997.2977 865.0214)" overflow="visible"/>
			
				<use xlink:href="#smallstars"  width="122" height="114.2" x="-61" y="-57.1" transform="matrix(0.7311 0.6823 0.6823 -0.7311 1090.2667 749.1054)" overflow="visible"/>
			
				<use xlink:href="#smallstars"  width="122" height="114.2" x="-61" y="-57.1" transform="matrix(0.5665 0.824 0.824 -0.5665 1220.7827 639.0692)" overflow="visible"/>
			
				<use xlink:href="#smallstars"  width="122" height="114.2" x="-61" y="-57.1" transform="matrix(0.3714 0.9285 0.9285 -0.3714 1315.0303 594.4774)" overflow="visible"/>
			
				<use xlink:href="#smallstars"  width="122" height="114.2" x="-61" y="-57.1" transform="matrix(-0.9839 -0.1789 -0.1789 0.9839 1265.8787 744.8567)" overflow="visible"/>
			
				<use xlink:href="#smallstars"  width="122" height="114.2" x="-61" y="-57.1" transform="matrix(-0.9578 -0.2873 -0.2873 0.9578 1200.0421 878.6933)" overflow="visible"/>
			
				<use xlink:href="#smallstars"  width="122" height="114.2" x="-61" y="-57.1" transform="matrix(-1 0 0 1 1166.9927 1018.3969)" overflow="visible"/>
			
				<use xlink:href="#smallstars"  width="122" height="114.2" x="-61" y="-57.1" transform="matrix(-0.6866 0.727 0.727 0.6866 1307.6731 1149.0454)" overflow="visible"/>
			
				<use xlink:href="#smallstars"  width="122" height="114.2" x="-61" y="-57.1" transform="matrix(-0.4679 0.8838 0.8838 0.4679 1419.3354 1185.2412)" overflow="visible"/>
			
				<use xlink:href="#smallstars"  width="122" height="114.2" x="-61" y="-57.1" transform="matrix(-0.5145 0.8575 0.8575 0.5145 1521.6493 1232.5168)" overflow="visible"/>
			
				<use xlink:href="#smallstars"  width="122" height="114.2" x="-61" y="-57.1" transform="matrix(-0.9839 0.1789 0.1789 0.9839 1514.1697 1310.8367)" overflow="visible"/>
			
				<use xlink:href="#smallstars"  width="122" height="114.2" x="-61" y="-57.1" transform="matrix(-0.2341 -0.9722 -0.9722 0.2341 1117.812 1434.4203)" overflow="visible"/>
			
				<use xlink:href="#smallstars"  width="122" height="114.2" x="-61" y="-57.1" transform="matrix(0.4979 -0.8673 -0.8673 -0.4979 710.241 1260.1899)" overflow="visible"/>
			
				<use xlink:href="#smallstars"  width="122" height="114.2" x="-61" y="-57.1" transform="matrix(0.3657 -0.9308 -0.9308 -0.3657 479.9895 1163.6656)" overflow="visible"/>
			
				<use xlink:href="#smallstars"  width="122" height="114.2" x="-61" y="-57.1" transform="matrix(-9.053570e-02 -0.9959 -0.9959 9.053570e-02 286.8096 1121.6394)" overflow="visible"/>
			
				<use xlink:href="#smallstars"  width="122" height="114.2" x="-61" y="-57.1" transform="matrix(-0.5855 -0.8107 -0.8107 0.5855 162.9154 1221.4011)" overflow="visible"/>
			
				<use xlink:href="#smallstars"  width="122" height="114.2" x="-61" y="-57.1" transform="matrix(-0.8824 -0.4706 -0.4706 0.8824 119.8371 1314.0197)" overflow="visible"/>
			
				<use xlink:href="#smallstars"  width="122" height="114.2" x="-61" y="-57.1" transform="matrix(-1 0 0 1 136.0712 1400.2472)" overflow="visible"/>
			
				<use xlink:href="#smallstars"  width="122" height="114.2" x="-61" y="-57.1" transform="matrix(-4.371139e-08 1 1 4.371139e-08 230.9827 1402.8395)" overflow="visible"/>
			
				<use xlink:href="#smallstars"  width="122" height="114.2" x="-61" y="-57.1" transform="matrix(0.7295 0.6839 0.6839 -0.7295 302.6112 1300.9482)" overflow="visible"/>
			
				<use xlink:href="#smallstars"  width="122" height="114.2" x="-61" y="-57.1" transform="matrix(0.9912 -0.1322 -0.1322 -0.9912 279.9214 1168.6504)" overflow="visible"/>
			
				<use xlink:href="#smallstars"  width="122" height="114.2" x="-61" y="-57.1" transform="matrix(-7.669646e-02 -0.9971 -0.9971 7.669646e-02 182.7593 1156.24)" overflow="visible"/>
			
				<use xlink:href="#smallstars"  width="122" height="114.2" x="-61" y="-57.1" transform="matrix(-0.6549 -0.7557 -0.7557 0.6549 65.7034 1234.9142)" overflow="visible"/>
			
				<use xlink:href="#smallstars"  width="122" height="114.2" x="-61" y="-57.1" transform="matrix(-0.9231 -0.3846 -0.3846 0.9231 24.0677 1325.1407)" overflow="visible"/>
			
				<use xlink:href="#smallstars"  width="122" height="114.2" x="-61" y="-57.1" transform="matrix(-0.6247 0.7809 0.7809 0.6247 86.5994 1384.5389)" overflow="visible"/>
			
				<use xlink:href="#smallstars"  width="122" height="114.2" x="-61" y="-57.1" transform="matrix(0.53 0.848 0.848 -0.53 174.0437 1340.7498)" overflow="visible"/>
			
				<use xlink:href="#smallstars"  width="122" height="114.2" x="-61" y="-57.1" transform="matrix(0.9806 0.1961 0.1961 -0.9806 157.1075 1098.2585)" overflow="visible"/>
			
				<use xlink:href="#smallstars"  width="122" height="114.2" x="-61" y="-57.1" transform="matrix(0.4229 -0.9062 -0.9062 -0.4229 47.2093 1044.7594)" overflow="visible"/>
			
				<use xlink:href="#smallstars"  width="122" height="114.2" x="-61" y="-57.1" transform="matrix(-0.2334 -0.9724 -0.9724 0.2334 -117.4986 1066.6558)" overflow="visible"/>
			
				<use xlink:href="#smallstars"  width="122" height="114.2" x="-61" y="-57.1" transform="matrix(-0.6247 -0.7809 -0.7809 0.6247 -250.5131 1168.866)" overflow="visible"/>
			
				<use xlink:href="#smallstars"  width="122" height="114.2" x="-61" y="-57.1" transform="matrix(-1 0 0 1 -226.7561 1201.6748)" overflow="visible"/>
			
				<use xlink:href="#smallstars"  width="122" height="114.2" x="-61" y="-57.1" transform="matrix(0.9487 0.3162 0.3162 -0.9487 -223.5015 1110.3533)" overflow="visible"/>
			
				<use xlink:href="#smallstars"  width="122" height="114.2" x="-61" y="-57.1" transform="matrix(0.9648 -0.2631 -0.2631 -0.9648 -257.856 1030.4603)" overflow="visible"/>
			
				<use xlink:href="#smallstars"  width="122" height="114.2" x="-61" y="-57.1" transform="matrix(0.9978 -6.651897e-02 -6.651897e-02 -0.9978 -274.5486 929.3536)" overflow="visible"/>
			
				<use xlink:href="#smallstars"  width="122" height="114.2" x="-61" y="-57.1" transform="matrix(1 0 0 -1 -281.7463 874.022)" overflow="visible"/>
			
				<use xlink:href="#smallstars"  width="122" height="114.2" x="-61" y="-57.1" transform="matrix(-0.1322 0.9912 0.9912 0.1322 -170.4669 915.1554)" overflow="visible"/>
			
				<use xlink:href="#smallstars"  width="122" height="114.2" x="-61" y="-57.1" transform="matrix(-0.2841 0.9588 0.9588 0.2841 9.6649 985.013)" overflow="visible"/>
			
				<use xlink:href="#smallstars"  width="122" height="114.2" x="-61" y="-57.1" transform="matrix(-0.124 0.9923 0.9923 0.124 184.7126 1022.801)" overflow="visible"/>
			
				<use xlink:href="#smallstars"  width="122" height="114.2" x="-61" y="-57.1" transform="matrix(0.2631 0.9648 0.9648 -0.2631 270.8147 1020.3188)" overflow="visible"/>
			
				<use xlink:href="#smallstars"  width="122" height="114.2" x="-61" y="-57.1" transform="matrix(0.3363 0.9417 0.9417 -0.3363 371.9015 1009.8885)" overflow="visible"/>
			
				<use xlink:href="#smallstars"  width="122" height="114.2" x="-61" y="-57.1" transform="matrix(-0.124 0.9923 0.9923 0.124 532.5145 1063.8824)" overflow="visible"/>
			
				<use xlink:href="#smallstars"  width="122" height="114.2" x="-61" y="-57.1" transform="matrix(-0.9285 0.3714 0.3714 0.9285 571.796 1112.066)" overflow="visible"/>
			
				<use xlink:href="#smallstars"  width="122" height="114.2" x="-61" y="-57.1" transform="matrix(0.6178 0.7863 0.7863 -0.6178 691.8755 1039.0701)" overflow="visible"/>
			
				<use xlink:href="#smallstars"  width="122" height="114.2" x="-61" y="-57.1" transform="matrix(0.9994 -3.569149e-02 -3.569149e-02 -0.9994 681.3416 816.5576)" overflow="visible"/>
			
				<use xlink:href="#smallstars"  width="122" height="114.2" x="-61" y="-57.1" transform="matrix(0.3078 -0.9514 -0.9514 -0.3078 301.6023 713.0327)" overflow="visible"/>
			
				<use xlink:href="#smallstars"  width="122" height="114.2" x="-61" y="-57.1" transform="matrix(4.371139e-08 -1 -1 -4.371139e-08 86.5532 666.7146)" overflow="visible"/>
			
				<use xlink:href="#smallstars"  width="122" height="114.2" x="-61" y="-57.1" transform="matrix(0.5812 -0.8137 -0.8137 -0.5812 6.3181 590.6645)" overflow="visible"/>
			
				<use xlink:href="#smallstars"  width="122" height="114.2" x="-61" y="-57.1" transform="matrix(0.7071 -0.7071 -0.7071 -0.7071 -36.6725 558.2913)" overflow="visible"/>
			
				<use xlink:href="#smallstars"  width="122" height="114.2" x="-61" y="-57.1" transform="matrix(-0.4856 -0.8742 -0.8742 0.4856 -152.4966 665.0565)" overflow="visible"/>
			
				<use xlink:href="#smallstars"  width="122" height="114.2" x="-61" y="-57.1" transform="matrix(1 0 0 -1 -156.0478 619.9783)" overflow="visible"/>
			
				<use xlink:href="#smallstars"  width="122" height="114.2" x="-61" y="-57.1" transform="matrix(1 0 0 -1 -153.1436 515.0787)" overflow="visible"/>
			
				<use xlink:href="#smallstars"  width="122" height="114.2" x="-61" y="-57.1" transform="matrix(0.9048 -0.4258 -0.4258 -0.9048 -185.4037 357.4182)" overflow="visible"/>
			
				<use xlink:href="#smallstars"  width="122" height="114.2" x="-61" y="-57.1" transform="matrix(0.2425 -0.9701 -0.9701 -0.2425 -232.7711 341.2357)" overflow="visible"/>
			
				<use xlink:href="#smallstars"  width="122" height="114.2" x="-61" y="-57.1" transform="matrix(-0.9285 -0.3714 -0.3714 0.9285 -250.0298 403.1607)" overflow="visible"/>
			
				<use xlink:href="#smallstars"  width="122" height="114.2" x="-61" y="-57.1" transform="matrix(-0.7682 0.6402 0.6402 0.7682 -213.3849 458.4937)" overflow="visible"/>
			
				<use xlink:href="#smallstars"  width="122" height="114.2" x="-61" y="-57.1" transform="matrix(-9.053579e-02 0.9959 0.9959 9.053579e-02 -130.9115 446.4185)" overflow="visible"/>
			
				<use xlink:href="#smallstars"  width="122" height="114.2" x="-61" y="-57.1" transform="matrix(-0.2249 0.9744 0.9744 0.2249 -50.058 468.4193)" overflow="visible"/>
			
				<use xlink:href="#smallstars"  width="122" height="114.2" x="-61" y="-57.1" transform="matrix(-0.2425 0.9701 0.9701 0.2425 13.5272 485.2044)" overflow="visible"/>
			
				<use xlink:href="#smallstars"  width="122" height="114.2" x="-61" y="-57.1" transform="matrix(-0.6247 0.7809 0.7809 0.6247 59.3762 529.6604)" overflow="visible"/>
			
				<use xlink:href="#smallstars"  width="122" height="114.2" x="-61" y="-57.1" transform="matrix(-0.8321 0.5547 0.5547 0.8321 94.5297 596.5009)" overflow="visible"/>
			
				<use xlink:href="#smallstars"  width="122" height="114.2" x="-61" y="-57.1" transform="matrix(-0.4191 0.908 0.908 0.4191 189.7107 689.6899)" overflow="visible"/>
			
				<use xlink:href="#smallstars"  width="122" height="114.2" x="-61" y="-57.1" transform="matrix(0.9285 0.3714 0.3714 -0.9285 190.5818 590.6307)" overflow="visible"/>
			
				<use xlink:href="#smallstars"  width="122" height="114.2" x="-61" y="-57.1" transform="matrix(0.9986 5.255888e-02 5.255888e-02 -0.9986 190.6511 418.3224)" overflow="visible"/>
			
				<use xlink:href="#smallstars"  width="122" height="114.2" x="-61" y="-57.1" transform="matrix(-4.371139e-08 1 1 4.371139e-08 279.1266 408.5539)" overflow="visible"/>
			
				<use xlink:href="#smallstars"  width="122" height="114.2" x="-61" y="-57.1" transform="matrix(-0.7071 0.7071 0.7071 0.7071 430.0755 567.466)" overflow="visible"/>
			
				<use xlink:href="#smallstars"  width="122" height="114.2" x="-61" y="-57.1" transform="matrix(-0.156 0.9878 0.9878 0.156 665.7739 622.4633)" overflow="visible"/>
			
				<use xlink:href="#smallstars"  width="122" height="114.2" x="-61" y="-57.1" transform="matrix(0.4036 0.9149 0.9149 -0.4036 1015.0531 454.1918)" overflow="visible"/>
			
				<use xlink:href="#smallstars"  width="122" height="114.2" x="-61" y="-57.1" transform="matrix(-0.1414 0.9899 0.9899 0.1414 1195.4781 469.2067)" overflow="visible"/>
			
				<use xlink:href="#smallstars"  width="122" height="114.2" x="-61" y="-57.1" transform="matrix(-0.5547 0.8321 0.8321 0.5547 1318.6389 533.455)" overflow="visible"/>
			
				<use xlink:href="#smallstars"  width="122" height="114.2" x="-61" y="-57.1" transform="matrix(0.3473 0.9377 0.9377 -0.3473 1514.9506 465.6844)" overflow="visible"/>
			
				<use xlink:href="#smallstars"  width="122" height="114.2" x="-61" y="-57.1" transform="matrix(-0.4472 0.8944 0.8944 0.4472 1702.2325 560.5149)" overflow="visible"/>
			
				<use xlink:href="#smallstars"  width="122" height="114.2" x="-61" y="-57.1" transform="matrix(0.285 0.9585 0.9585 -0.285 1910.1337 481.6822)" overflow="visible"/>
			
				<use xlink:href="#smallstars"  width="122" height="114.2" x="-61" y="-57.1" transform="matrix(0.9782 0.2075 0.2075 -0.9782 1953.8263 241.7705)" overflow="visible"/>
			
				<use xlink:href="#smallstars"  width="122" height="114.2" x="-61" y="-57.1" transform="matrix(0.9806 -0.1961 -0.1961 -0.9806 1923.6766 50.9118)" overflow="visible"/>
			
				<use xlink:href="#smallstars"  width="122" height="114.2" x="-61" y="-57.1" transform="matrix(0.7442 -0.6679 -0.6679 -0.7442 1721.077 -254.1306)" overflow="visible"/>
			
				<use xlink:href="#smallstars"  width="122" height="114.2" x="-61" y="-57.1" transform="matrix(0.2707 -0.9627 -0.9627 -0.2707 1505.3187 -382.6463)" overflow="visible"/>
			
				<use xlink:href="#smallstars"  width="122" height="114.2" x="-61" y="-57.1" transform="matrix(-0.3162 -0.9487 -0.9487 0.3162 1277.5225 -381.283)" overflow="visible"/>
			
				<use xlink:href="#smallstars"  width="122" height="114.2" x="-61" y="-57.1" transform="matrix(-0.6 0.8 0.8 0.6 1361.2723 -286.6938)" overflow="visible"/>
			
				<use xlink:href="#smallstars"  width="122" height="114.2" x="-61" y="-57.1" transform="matrix(0.1713 0.9852 0.9852 -0.1713 1565.8265 -284.5256)" overflow="visible"/>
			
				<use xlink:href="#smallstars"  width="122" height="114.2" x="-61" y="-57.1" transform="matrix(0.725 0.6887 0.6887 -0.725 1659.2236 -417.5299)" overflow="visible"/>
			
				<use xlink:href="#smallstars"  width="122" height="114.2" x="-61" y="-57.1" transform="matrix(0.1104 -0.9939 -0.9939 -0.1104 1515.1439 -487.6786)" overflow="visible"/>
			
				<use xlink:href="#smallstars"  width="122" height="114.2" x="-61" y="-57.1" transform="matrix(-0.774 -0.6332 -0.6332 0.774 1436.9882 -324.7016)" overflow="visible"/>
			
				<use xlink:href="#smallstars"  width="122" height="114.2" x="-61" y="-57.1" transform="matrix(-0.4706 0.8824 0.8824 0.4706 1569.2068 -189.6606)" overflow="visible"/>
			
				<use xlink:href="#smallstars"  width="122" height="114.2" x="-61" y="-57.1" transform="matrix(0.5369 0.8437 0.8437 -0.5369 1630.3701 -252.694)" overflow="visible"/>
			
				<use xlink:href="#smallstars"  width="122" height="114.2" x="-61" y="-57.1" transform="matrix(0.9823 -0.1871 -0.1871 -0.9823 1565.9197 -446.9574)" overflow="visible"/>
			
				<use xlink:href="#smallstars"  width="122" height="114.2" x="-61" y="-57.1" transform="matrix(-0.206 -0.9785 -0.9785 0.206 1250.5931 -478.0434)" overflow="visible"/>
			
				<use xlink:href="#smallstars"  width="122" height="114.2" x="-61" y="-57.1" transform="matrix(-0.9932 0.1168 0.1168 0.9932 1285.851 -286.182)" overflow="visible"/>
			
				<use xlink:href="#smallstars"  width="122" height="114.2" x="-61" y="-57.1" transform="matrix(0.1521 0.9884 0.9884 -0.1521 1427.1696 -279.633)" overflow="visible"/>
			
				<use xlink:href="#smallstars"  width="122" height="114.2" x="-61" y="-57.1" transform="matrix(0.9986 5.255888e-02 5.255888e-02 -0.9986 1386.0814 -471.2838)" overflow="visible"/>
			
				<use xlink:href="#smallstars"  width="122" height="114.2" x="-61" y="-57.1" transform="matrix(0.5039 -0.8638 -0.8638 -0.5039 1166.1257 -597.5643)" overflow="visible"/>
			
				<use xlink:href="#smallstars"  width="122" height="114.2" x="-61" y="-57.1" transform="matrix(-0.9363 -0.3511 -0.3511 0.9363 1129.2446 -489.1815)" overflow="visible"/>
			
				<use xlink:href="#smallstars"  width="122" height="114.2" x="-61" y="-57.1" transform="matrix(-0.4886 0.8725 0.8725 0.4886 1371.1117 -341.4291)" overflow="visible"/>
			
				<use xlink:href="#smallstars"  width="122" height="114.2" x="-61" y="-57.1" transform="matrix(0.5882 0.8087 0.8087 -0.5882 1455.9644 -395.7229)" overflow="visible"/>
			
				<use xlink:href="#smallstars"  width="122" height="114.2" x="-61" y="-57.1" transform="matrix(0.8805 -0.4741 -0.4741 -0.8805 1359.6056 -520.1395)" overflow="visible"/>
			
				<use xlink:href="#smallstars"  width="122" height="114.2" x="-61" y="-57.1" transform="matrix(-0.1465 -0.9892 -0.9892 0.1465 1152.1143 -522.8372)" overflow="visible"/>
			
				<use xlink:href="#smallstars"  width="122" height="114.2" x="-61" y="-57.1" transform="matrix(-0.9848 -0.1738 -0.1738 0.9848 1154.2837 -364.9598)" overflow="visible"/>
			
				<use xlink:href="#smallstars"  width="122" height="114.2" x="-61" y="-57.1" transform="matrix(-0.4961 0.8682 0.8682 0.4961 1245.7441 -255.5479)" overflow="visible"/>
			
				<use xlink:href="#smallstars"  width="122" height="114.2" x="-61" y="-57.1" transform="matrix(-7.669654e-02 0.9971 0.9971 7.669654e-02 1414.879 -200.2335)" overflow="visible"/>
			
				<use xlink:href="#smallstars"  width="122" height="114.2" x="-61" y="-57.1" transform="matrix(0.3939 0.9191 0.9191 -0.3939 1492.0183 -220.2117)" overflow="visible"/>
			
				<use xlink:href="#smallstars"  width="122" height="114.2" x="-61" y="-57.1" transform="matrix(4.371139e-08 -1 -1 -4.371139e-08 1465.7759 -247.7377)" overflow="visible"/>
			
				<use xlink:href="#smallstars"  width="122" height="114.2" x="-61" y="-57.1" transform="matrix(4.371139e-08 -1 -1 -4.371139e-08 1368.062 -244.6302)" overflow="visible"/>
			
				<use xlink:href="#smallstars"  width="122" height="114.2" x="-61" y="-57.1" transform="matrix(0.9104 0.4138 0.4138 -0.9104 1390.823 -393.3644)" overflow="visible"/>
			
				<use xlink:href="#smallstars"  width="122" height="114.2" x="-61" y="-57.1" transform="matrix(-0.6 -0.8 -0.8 0.6 1321.4303 -338.5834)" overflow="visible"/>
			
				<use xlink:href="#smallstars"  width="122" height="114.2" x="-61" y="-57.1" transform="matrix(-0.2124 -0.9772 -0.9772 0.2124 1154.6649 -288.7491)" overflow="visible"/>
			
				<use xlink:href="#smallstars"  width="122" height="114.2" x="-61" y="-57.1" transform="matrix(0.4573 -0.8893 -0.8893 -0.4573 811.4177 -508.1437)" overflow="visible"/>
			
				<use xlink:href="#smallstars"  width="122" height="114.2" x="-61" y="-57.1" transform="matrix(-0.2596 -0.9657 -0.9657 0.2596 50.2896 -210.2403)" overflow="visible"/>
			
				<use xlink:href="#smallstars"  width="122" height="114.2" x="-61" y="-57.1" transform="matrix(-0.8321 -0.5547 -0.5547 0.8321 -97.7524 -2.9018)" overflow="visible"/>
			
				<use xlink:href="#smallstars"  width="122" height="114.2" x="-61" y="-57.1" transform="matrix(0.9839 -0.1789 -0.1789 -0.9839 -104.4475 -177.6381)" overflow="visible"/>
			
				<use xlink:href="#smallstars"  width="122" height="114.2" x="-61" y="-57.1" transform="matrix(0.9839 -0.1789 -0.1789 -0.9839 -100.1611 -268.1311)" overflow="visible"/>
			
				<use xlink:href="#smallstars"  width="122" height="114.2" x="-61" y="-57.1" transform="matrix(0.5623 0.8269 0.8269 -0.5623 82.8234 -423.0984)" overflow="visible"/>
			
				<use xlink:href="#smallstars"  width="122" height="114.2" x="-61" y="-57.1" transform="matrix(0.2425 0.9701 0.9701 -0.2425 202.4721 -466.0219)" overflow="visible"/>
			
				<use xlink:href="#smallstars"  width="122" height="114.2" x="-61" y="-57.1" transform="matrix(0.1789 0.9839 0.9839 -0.1789 286.8924 -489.1739)" overflow="visible"/>
			
				<use xlink:href="#smallstars"  width="122" height="114.2" x="-61" y="-57.1" transform="matrix(0.5547 0.8321 0.8321 -0.5547 339.8976 -515.8643)" overflow="visible"/>
			
				<use xlink:href="#smallstars"  width="122" height="114.2" x="-61" y="-57.1" transform="matrix(0.7071 0.7071 0.7071 -0.7071 367.4098 -550.2263)" overflow="visible"/>
			
				<use xlink:href="#smallstars"  width="122" height="114.2" x="-61" y="-57.1" transform="matrix(0.8 0.6 0.6 -0.8 405.1564 -589.5231)" overflow="visible"/>
			
				<use xlink:href="#smallstars"  width="122" height="114.2" x="-61" y="-57.1" transform="matrix(-4.371139e-08 1 1 4.371139e-08 458.0716 -592.2632)" overflow="visible"/>
			
				<use xlink:href="#smallstars"  width="122" height="114.2" x="-61" y="-57.1" transform="matrix(-1 0 0 1 447.9524 -546.9141)" overflow="visible"/>
			
				<use xlink:href="#smallstars"  width="122" height="114.2" x="-61" y="-57.1" transform="matrix(-0.9285 -0.3714 -0.3714 0.9285 405.4267 -499.3032)" overflow="visible"/>
			
				<use xlink:href="#smallstars"  width="122" height="114.2" x="-61" y="-57.1" transform="matrix(-0.5882 -0.8087 -0.8087 0.5882 292.6239 -428.5877)" overflow="visible"/>
			
				<use xlink:href="#smallstars"  width="122" height="114.2" x="-61" y="-57.1" transform="matrix(-0.4472 -0.8944 -0.8944 0.4472 223.5547 -391.6787)" overflow="visible"/>
			
				<use xlink:href="#smallstars"  width="122" height="114.2" x="-61" y="-57.1" transform="matrix(-0.1644 -0.9864 -0.9864 0.1644 139.4328 -373.2255)" overflow="visible"/>
			
				<use xlink:href="#smallstars"  width="122" height="114.2" x="-61" y="-57.1" transform="matrix(-0.1644 -0.9864 -0.9864 0.1644 74.7519 -356.1249)" overflow="visible"/>
			
				<use xlink:href="#smallstars"  width="122" height="114.2" x="-61" y="-57.1" transform="matrix(-0.9363 0.3511 0.3511 0.9363 102.3904 -293.677)" overflow="visible"/>
			
				<use xlink:href="#smallstars"  width="122" height="114.2" x="-61" y="-57.1" transform="matrix(-0.774 0.6332 0.6332 0.774 158.717 -219.0098)" overflow="visible"/>
			
				<use xlink:href="#smallstars"  width="122" height="114.2" x="-61" y="-57.1" transform="matrix(-0.1738 0.9848 0.9848 0.1738 293.7383 -202.2499)" overflow="visible"/>
			
				<use xlink:href="#smallstars"  width="122" height="114.2" x="-61" y="-57.1" transform="matrix(0.4472 0.8944 0.8944 -0.4472 405.635 -284.9942)" overflow="visible"/>
			
				<use xlink:href="#smallstars"  width="122" height="114.2" x="-61" y="-57.1" transform="matrix(0.8944 0.4472 0.4472 -0.8944 525.8808 -433.0556)" overflow="visible"/>
			
				<use xlink:href="#smallstars"  width="122" height="114.2" x="-61" y="-57.1" transform="matrix(0.6 -0.8 -0.8 -0.6 477.1831 -439.9895)" overflow="visible"/>
			
				<use xlink:href="#smallstars"  width="122" height="114.2" x="-61" y="-57.1" transform="matrix(-0.2873 -0.9578 -0.9578 0.2873 387.7034 -397.228)" overflow="visible"/>
			
				<use xlink:href="#smallstars"  width="122" height="114.2" x="-61" y="-57.1" transform="matrix(-0.6459 -0.7634 -0.7634 0.6459 266.8364 -293.8354)" overflow="visible"/>
			
				<use xlink:href="#smallstars"  width="122" height="114.2" x="-61" y="-57.1" transform="matrix(-0.848 -0.53 -0.53 0.848 225.1522 -224.2578)" overflow="visible"/>
			
				<use xlink:href="#smallstars"  width="122" height="114.2" x="-61" y="-57.1" transform="matrix(0.6247 0.7809 0.7809 -0.6247 344.5303 -332.7543)" overflow="visible"/>
			
				<use xlink:href="#smallstars"  width="122" height="114.2" x="-61" y="-57.1" transform="matrix(-0.4706 0.8824 0.8824 0.4706 459.4179 -308.1868)" overflow="visible"/>
			
				<use xlink:href="#smallstars"  width="122" height="114.2" x="-61" y="-57.1" transform="matrix(-0.6459 0.7634 0.7634 0.6459 508.6792 -235.8335)" overflow="visible"/>
			
				<use xlink:href="#smallstars"  width="122" height="114.2" x="-61" y="-57.1" transform="matrix(-0.2334 0.9724 0.9724 0.2334 918.4172 -239.2756)" overflow="visible"/>
			
				<use xlink:href="#smallstars"  width="122" height="114.2" x="-61" y="-57.1" transform="matrix(0.6247 0.7809 0.7809 -0.6247 1078.2961 -343.564)" overflow="visible"/>
			
				<use xlink:href="#smallstars"  width="122" height="114.2" x="-61" y="-57.1" transform="matrix(0.4472 0.8944 0.8944 -0.4472 1251.384 -434.4913)" overflow="visible"/>
			
				<use xlink:href="#smallstars"  width="122" height="114.2" x="-61" y="-57.1" transform="matrix(-1 0 0 1 1248.0735 -338.4635)" overflow="visible"/>
			
				<use xlink:href="#smallstars"  width="122" height="114.2" x="-61" y="-57.1" transform="matrix(-1 0 0 1 1284.5854 -219.5853)" overflow="visible"/>
			
				<use xlink:href="#smallstars"  width="122" height="114.2" x="-61" y="-57.1" transform="matrix(-0.8137 0.5812 0.5812 0.8137 1339.3346 -136.259)" overflow="visible"/>
			
				<use xlink:href="#smallstars"  width="122" height="114.2" x="-61" y="-57.1" transform="matrix(-0.6247 0.7809 0.7809 0.6247 1397.2811 -96.9473)" overflow="visible"/>
			
				<use xlink:href="#smallstars"  width="122" height="114.2" x="-61" y="-57.1" transform="matrix(-4.371139e-08 1 1 4.371139e-08 1465.3163 -92.6665)" overflow="visible"/>
			
				<use xlink:href="#smallstars"  width="122" height="114.2" x="-61" y="-57.1" transform="matrix(0.9939 0.1104 0.1104 -0.9939 1468.4808 -161.1536)" overflow="visible"/>
			
				<use xlink:href="#smallstars"  width="122" height="114.2" x="-61" y="-57.1" transform="matrix(0.2747 -0.9615 -0.9615 -0.2747 1371.5883 -191.6812)" overflow="visible"/>
			
				<use xlink:href="#smallstars"  width="122" height="114.2" x="-61" y="-57.1" transform="matrix(-0.359 -0.9333 -0.9333 0.359 1259.0042 -174.1172)" overflow="visible"/>
			
				<use xlink:href="#smallstars"  width="122" height="114.2" x="-61" y="-57.1" transform="matrix(-0.8192 -0.5735 -0.5735 0.8192 1221.3002 -112.8309)" overflow="visible"/>
			
				<use xlink:href="#smallstars"  width="122" height="114.2" x="-61" y="-57.1" transform="matrix(-0.995 9.950367e-02 9.950367e-02 0.995 1261.561 -30.0994)" overflow="visible"/>
			
				<use xlink:href="#smallstars"  width="122" height="114.2" x="-61" y="-57.1" transform="matrix(-0.9778 0.2095 0.2095 0.9778 1322.1444 102.746)" overflow="visible"/>
			
				<use xlink:href="#smallstars"  width="122" height="114.2" x="-61" y="-57.1" transform="matrix(-0.8682 0.4961 0.4961 0.8682 1367.4121 177.2354)" overflow="visible"/>
			
				<use xlink:href="#smallstars"  width="122" height="114.2" x="-61" y="-57.1" transform="matrix(-0.7071 0.7071 0.7071 0.7071 1366.5471 216.0171)" overflow="visible"/>
			
				<use xlink:href="#smallstars"  width="122" height="114.2" x="-61" y="-57.1" transform="matrix(0.8575 -0.5145 -0.5145 -0.8575 1289.6279 65.9081)" overflow="visible"/>
			
				<use xlink:href="#smallstars"  width="122" height="114.2" x="-61" y="-57.1" transform="matrix(0.8805 -0.4741 -0.4741 -0.8805 1197.348 -47.7004)" overflow="visible"/>
			
				<use xlink:href="#smallstars"  width="122" height="114.2" x="-61" y="-57.1" transform="matrix(0.9363 -0.3511 -0.3511 -0.9363 1137.9227 -184.8576)" overflow="visible"/>
			
				<use xlink:href="#smallstars"  width="122" height="114.2" x="-61" y="-57.1" transform="matrix(0.9965 -8.304544e-02 -8.304544e-02 -0.9965 1101.1996 -298.3758)" overflow="visible"/>
			
				<use xlink:href="#smallstars"  width="122" height="114.2" x="-61" y="-57.1" transform="matrix(0.9899 -0.1414 -0.1414 -0.9899 1057.3362 -380.9929)" overflow="visible"/>
			
				<use xlink:href="#smallstars"  width="122" height="114.2" x="-61" y="-57.1" transform="matrix(1 0 0 -1 1046.7998 -420.4046)" overflow="visible"/>
			
				<use xlink:href="#smallstars"  width="122" height="114.2" x="-61" y="-57.1" transform="matrix(-4.371139e-08 1 1 4.371139e-08 1107.3979 -408.0668)" overflow="visible"/>
			
				<use xlink:href="#smallstars"  width="122" height="114.2" x="-61" y="-57.1" transform="matrix(0.9701 -0.2425 -0.2425 -0.9701 1066.6581 -464.5961)" overflow="visible"/>
			
				<use xlink:href="#smallstars"  width="122" height="114.2" x="-61" y="-57.1" transform="matrix(0.5145 -0.8575 -0.8575 -0.5145 984.6566 -509.3691)" overflow="visible"/>
			
				<use xlink:href="#smallstars"  width="122" height="114.2" x="-61" y="-57.1" transform="matrix(0.2425 -0.9701 -0.9701 -0.2425 930.533 -517.597)" overflow="visible"/>
			
				<use xlink:href="#smallstars"  width="122" height="114.2" x="-61" y="-57.1" transform="matrix(-0.9701 0.2425 0.2425 0.9701 960.2463 -444.3406)" overflow="visible"/>
			
				<use xlink:href="#smallstars"  width="122" height="114.2" x="-61" y="-57.1" transform="matrix(-0.9823 0.1871 0.1871 0.9823 1059.3519 -238.7233)" overflow="visible"/>
			
				<use xlink:href="#smallstars"  width="122" height="114.2" x="-61" y="-57.1" transform="matrix(-0.9683 0.2499 0.2499 0.9683 1156.6124 47.7145)" overflow="visible"/>
			
				<use xlink:href="#smallstars"  width="122" height="114.2" x="-61" y="-57.1" transform="matrix(-0.9119 0.4104 0.4104 0.9119 1243.925 305.29)" overflow="visible"/>
			
				<use xlink:href="#smallstars"  width="122" height="114.2" x="-61" y="-57.1" transform="matrix(-0.8742 0.4856 0.4856 0.8742 1339.301 421.7198)" overflow="visible"/>
			
				<use xlink:href="#smallstars"  width="122" height="114.2" x="-61" y="-57.1" transform="matrix(-0.9829 0.1843 0.1843 0.9829 1370.625 521.3633)" overflow="visible"/>
			
				<use xlink:href="#smallstars"  width="122" height="114.2" x="-61" y="-57.1" transform="matrix(-0.7926 -0.6097 -0.6097 0.7926 1257.1091 677.7322)" overflow="visible"/>
			
				<use xlink:href="#smallstars"  width="122" height="114.2" x="-61" y="-57.1" transform="matrix(-0.6727 -0.7399 -0.7399 0.6727 947.5011 937.1877)" overflow="visible"/>
			
				<use xlink:href="#smallstars"  width="122" height="114.2" x="-61" y="-57.1" transform="matrix(-0.5433 -0.8396 -0.8396 0.5433 792.0357 1022.4457)" overflow="visible"/>
			
				<use xlink:href="#smallstars"  width="122" height="114.2" x="-61" y="-57.1" transform="matrix(0.9029 0.4299 0.4299 -0.9029 901.6831 863.9894)" overflow="visible"/>
			
				<use xlink:href="#smallstars"  width="122" height="114.2" x="-61" y="-57.1" transform="matrix(0.9138 0.4061 0.4061 -0.9138 1007.5766 642.96)" overflow="visible"/>
			
				<use xlink:href="#smallstars"  width="122" height="114.2" x="-61" y="-57.1" transform="matrix(-0.5547 0.8321 0.8321 0.5547 1112.0083 694.6964)" overflow="visible"/>
			
				<use xlink:href="#smallstars"  width="122" height="114.2" x="-61" y="-57.1" transform="matrix(-0.9285 0.3714 0.3714 0.9285 1163.8417 811.1836)" overflow="visible"/>
			
				<use xlink:href="#smallstars"  width="122" height="114.2" x="-61" y="-57.1" transform="matrix(-0.9487 -0.3162 -0.3162 0.9487 1096.608 940.3788)" overflow="visible"/>
			
				<use xlink:href="#smallstars"  width="122" height="114.2" x="-61" y="-57.1" transform="matrix(-0.8396 -0.5433 -0.5433 0.8396 986.0223 1074.2263)" overflow="visible"/>
			
				<use xlink:href="#smallstars"  width="122" height="114.2" x="-61" y="-57.1" transform="matrix(-0.7071 -0.7071 -0.7071 0.7071 932.3536 1122.538)" overflow="visible"/>
			
				<use xlink:href="#smallstars"  width="122" height="114.2" x="-61" y="-57.1" transform="matrix(-0.8944 0.4472 0.4472 0.8944 960.7574 1184.4089)" overflow="visible"/>
			
				<use xlink:href="#smallstars"  width="122" height="114.2" x="-61" y="-57.1" transform="matrix(-0.9884 0.1521 0.1521 0.9884 976.3473 1351.7676)" overflow="visible"/>
			
				<use xlink:href="#smallstars"  width="122" height="114.2" x="-61" y="-57.1" transform="matrix(-0.3162 -0.9487 -0.9487 0.3162 779.2357 1408.6895)" overflow="visible"/>
			
				<use xlink:href="#smallstars"  width="122" height="114.2" x="-61" y="-57.1" transform="matrix(0.4614 -0.8872 -0.8872 -0.4614 600.1874 1331.2177)" overflow="visible"/>
			
				<use xlink:href="#smallstars"  width="122" height="114.2" x="-61" y="-57.1" transform="matrix(0.2631 -0.9648 -0.9648 -0.2631 305.8805 1224.7561)" overflow="visible"/>
			
				<use xlink:href="#smallstars"  width="122" height="114.2" x="-61" y="-57.1" transform="matrix(7.974526e-02 -0.9968 -0.9968 -7.974526e-02 94.889 1167.2073)" overflow="visible"/>
			
				<use xlink:href="#smallstars"  width="122" height="114.2" x="-61" y="-57.1" transform="matrix(9.480914e-02 -0.9955 -0.9955 -9.480914e-02 -46.3072 1142.0538)" overflow="visible"/>
			
				<use xlink:href="#smallstars"  width="122" height="114.2" x="-61" y="-57.1" transform="matrix(-0.9398 -0.3417 -0.3417 0.9398 -69.247 1228.7085)" overflow="visible"/>
			
				<use xlink:href="#smallstars"  width="122" height="114.2" x="-61" y="-57.1" transform="matrix(-0.534 0.8455 0.8455 0.534 71.9264 1331.031)" overflow="visible"/>
			
				<use xlink:href="#smallstars"  width="122" height="114.2" x="-61" y="-57.1" transform="matrix(7.870244e-02 0.9969 0.9969 -7.870244e-02 408.2774 1382.0499)" overflow="visible"/>
			
				<use xlink:href="#smallstars"  width="122" height="114.2" x="-61" y="-57.1" transform="matrix(0.2382 0.9712 0.9712 -0.2382 796.8903 1293.847)" overflow="visible"/>
			
				<use xlink:href="#smallstars"  width="122" height="114.2" x="-61" y="-57.1" transform="matrix(0.283 0.9591 0.9591 -0.283 1289.9122 1110.6166)" overflow="visible"/>
			
				<use xlink:href="#smallstars"  width="122" height="114.2" x="-61" y="-57.1" transform="matrix(0.771 0.6369 0.6369 -0.771 1445.0957 934.9821)" overflow="visible"/>
			
				<use xlink:href="#smallstars"  width="122" height="114.2" x="-61" y="-57.1" transform="matrix(0.8609 0.5087 0.5087 -0.8609 1574.9691 757.602)" overflow="visible"/>
			
				<use xlink:href="#smallstars"  width="122" height="114.2" x="-61" y="-57.1" transform="matrix(0.9398 0.3417 0.3417 -0.9398 1628.9777 582.4233)" overflow="visible"/>
			
				<use xlink:href="#smallstars"  width="122" height="114.2" x="-61" y="-57.1" transform="matrix(4.371139e-08 -1 -1 -4.371139e-08 1248.2404 575.2426)" overflow="visible"/>
			
				<use xlink:href="#smallstars"  width="122" height="114.2" x="-61" y="-57.1" transform="matrix(-0.3571 -0.9341 -0.9341 0.3571 966.7161 743.1379)" overflow="visible"/>
			
				<use xlink:href="#smallstars"  width="122" height="114.2" x="-61" y="-57.1" transform="matrix(-0.4472 -0.8944 -0.8944 0.4472 877.5782 803.5723)" overflow="visible"/>
			
				<use xlink:href="#smallstars"  width="122" height="114.2" x="-61" y="-57.1" transform="matrix(-0.9744 -0.2249 -0.2249 0.9744 837.511 895.8506)" overflow="visible"/>
			
				<use xlink:href="#smallstars"  width="122" height="114.2" x="-61" y="-57.1" transform="matrix(-0.9191 -0.3939 -0.3939 0.9191 811.9293 952.2889)" overflow="visible"/>
			
				<use xlink:href="#smallstars"  width="122" height="114.2" x="-61" y="-57.1" transform="matrix(0.2169 -0.9762 -0.9762 -0.2169 735.9858 939.559)" overflow="visible"/>
			
				<use xlink:href="#smallstars"  width="122" height="114.2" x="-61" y="-57.1" transform="matrix(0.7474 -0.6644 -0.6644 -0.7474 653.5738 865.009)" overflow="visible"/>
			
				<use xlink:href="#smallstars"  width="122" height="114.2" x="-61" y="-57.1" transform="matrix(0.908 -0.4191 -0.4191 -0.908 570.7036 786.3931)" overflow="visible"/>
			
				<use xlink:href="#smallstars"  width="122" height="114.2" x="-61" y="-57.1" transform="matrix(0.9363 -0.3511 -0.3511 -0.9363 504.5523 687.9965)" overflow="visible"/>
			
				<use xlink:href="#smallstars"  width="122" height="114.2" x="-61" y="-57.1" transform="matrix(0.4961 -0.8682 -0.8682 -0.4961 410.958 648.3889)" overflow="visible"/>
			
				<use xlink:href="#smallstars"  width="122" height="114.2" x="-61" y="-57.1" transform="matrix(0.2747 -0.9615 -0.9615 -0.2747 308.9375 603.5882)" overflow="visible"/>
			
				<use xlink:href="#smallstars"  width="122" height="114.2" x="-61" y="-57.1" transform="matrix(0.1104 -0.9939 -0.9939 -0.1104 246.0399 569.9872)" overflow="visible"/>
			
				<use xlink:href="#smallstars"  width="122" height="114.2" x="-61" y="-57.1" transform="matrix(4.371139e-08 -1 -1 -4.371139e-08 208.3215 541.3243)" overflow="visible"/>
			
				<use xlink:href="#smallstars"  width="122" height="114.2" x="-61" y="-57.1" transform="matrix(-0.9806 0.1961 0.1961 0.9806 241.7533 640.1019)" overflow="visible"/>
			
				<use xlink:href="#smallstars"  width="122" height="114.2" x="-61" y="-57.1" transform="matrix(-0.1871 0.9823 0.9823 0.1871 386.108 698.0755)" overflow="visible"/>
			
				<use xlink:href="#smallstars"  width="122" height="114.2" x="-61" y="-57.1" transform="matrix(-4.371139e-08 1 1 4.371139e-08 785.3041 694.3698)" overflow="visible"/>
			
				<use xlink:href="#smallstars"  width="122" height="114.2" x="-61" y="-57.1" transform="matrix(8.304544e-02 0.9965 0.9965 -8.304544e-02 1104.2551 647.0052)" overflow="visible"/>
			
				<use xlink:href="#smallstars"  width="122" height="114.2" x="-61" y="-57.1" transform="matrix(-9.053579e-02 0.9959 0.9959 9.053579e-02 1328.9169 645.8632)" overflow="visible"/>
			
				<use xlink:href="#smallstars"  width="122" height="114.2" x="-61" y="-57.1" transform="matrix(-0.5932 0.8051 0.8051 0.5932 1443.0837 732.205)" overflow="visible"/>
			
				<use xlink:href="#smallstars"  width="122" height="114.2" x="-61" y="-57.1" transform="matrix(-0.9363 0.3511 0.3511 0.9363 1468.4297 850.0524)" overflow="visible"/>
			
				<use xlink:href="#smallstars"  width="122" height="114.2" x="-61" y="-57.1" transform="matrix(-0.9986 5.255879e-02 5.255879e-02 0.9986 1430.7391 1005.2332)" overflow="visible"/>
			
				<use xlink:href="#smallstars"  width="122" height="114.2" x="-61" y="-57.1" transform="matrix(-0.9785 0.206 0.206 0.9785 1458.7892 1130.0498)" overflow="visible"/>
			
				<use xlink:href="#smallstars"  width="122" height="114.2" x="-61" y="-57.1" transform="matrix(-0.4138 0.9104 0.9104 0.4138 1542.6998 1153.0594)" overflow="visible"/>
			
				<use xlink:href="#smallstars"  width="122" height="114.2" x="-61" y="-57.1" transform="matrix(0.8137 -0.5812 -0.5812 -0.8137 942.3024 815.1855)" overflow="visible"/>
			
				<use xlink:href="#smallstars"  width="122" height="114.2" x="-61" y="-57.1" transform="matrix(0.6508 -0.7593 -0.7593 -0.6508 882.2991 759.7857)" overflow="visible"/>
			
				<use xlink:href="#smallstars"  width="122" height="114.2" x="-61" y="-57.1" transform="matrix(0.6247 -0.7809 -0.7809 -0.6247 815.6802 772.5161)" overflow="visible"/>
			
				<use xlink:href="#smallstars"  width="122" height="114.2" x="-61" y="-57.1" transform="matrix(0.8321 -0.5547 -0.5547 -0.8321 791.9533 737.6224)" overflow="visible"/>
			
				<use xlink:href="#smallstars"  width="122" height="114.2" x="-61" y="-57.1" transform="matrix(1 0 0 -1 821.2885 655.6862)" overflow="visible"/>
			
				<use xlink:href="#smallstars"  width="122" height="114.2" x="-61" y="-57.1" transform="matrix(0.5812 -0.8137 -0.8137 -0.5812 725.4178 614.9525)" overflow="visible"/>
			
				<use xlink:href="#smallstars"  width="122" height="114.2" x="-61" y="-57.1" transform="matrix(0.1644 -0.9864 -0.9864 -0.1644 568.2588 590.2599)" overflow="visible"/>
			
				<use xlink:href="#smallstars"  width="122" height="114.2" x="-61" y="-57.1" transform="matrix(0.3714 -0.9285 -0.9285 -0.3714 363.5165 531.202)" overflow="visible"/>
			
				<use xlink:href="#smallstars"  width="122" height="114.2" x="-61" y="-57.1" transform="matrix(0.4472 -0.8944 -0.8944 -0.4472 272.221 465.7143)" overflow="visible"/>
			
				<use xlink:href="#smallstars"  width="122" height="114.2" x="-61" y="-57.1" transform="matrix(0.5433 -0.8396 -0.8396 -0.5433 152.3461 368.5109)" overflow="visible"/>
			
				<use xlink:href="#smallstars"  width="122" height="114.2" x="-61" y="-57.1" transform="matrix(0.7071 -0.7071 -0.7071 -0.7071 77.9332 235.2644)" overflow="visible"/>
			
				<use xlink:href="#smallstars"  width="122" height="114.2" x="-61" y="-57.1" transform="matrix(9.950367e-02 0.995 0.995 -9.950367e-02 160.765 229.5019)" overflow="visible"/>
			
				<use xlink:href="#smallstars"  width="122" height="114.2" x="-61" y="-57.1" transform="matrix(-0.1414 0.9899 0.9899 0.1414 343.5513 272.2973)" overflow="visible"/>
			
				<use xlink:href="#smallstars"  width="122" height="114.2" x="-61" y="-57.1" transform="matrix(-0.3939 0.9191 0.9191 0.3939 603.2659 410.033)" overflow="visible"/>
			
				<use xlink:href="#smallstars"  width="122" height="114.2" x="-61" y="-57.1" transform="matrix(-0.4472 0.8944 0.8944 0.4472 916.469 519.572)" overflow="visible"/>
			
				<use xlink:href="#smallstars"  width="122" height="114.2" x="-61" y="-57.1" transform="matrix(-0.4741 0.8805 0.8805 0.4741 996.5593 581.7039)" overflow="visible"/>
			
				<use xlink:href="#smallstars"  width="122" height="114.2" x="-61" y="-57.1" transform="matrix(-0.4472 0.8944 0.8944 0.4472 1036.1224 594.832)" overflow="visible"/>
			
				<use xlink:href="#smallstars"  width="122" height="114.2" x="-61" y="-57.1" transform="matrix(0.359 -0.9333 -0.9333 -0.359 919.8547 569.5515)" overflow="visible"/>
			
				<use xlink:href="#smallstars"  width="122" height="114.2" x="-61" y="-57.1" transform="matrix(0.3162 -0.9487 -0.9487 -0.3162 746.7908 508.7086)" overflow="visible"/>
			
				<use xlink:href="#smallstars"  width="122" height="114.2" x="-61" y="-57.1" transform="matrix(0.5145 -0.8575 -0.8575 -0.5145 598.0882 454.5875)" overflow="visible"/>
			
				<use xlink:href="#smallstars"  width="122" height="114.2" x="-61" y="-57.1" transform="matrix(0.1104 -0.9939 -0.9939 -0.1104 480.1915 391.0529)" overflow="visible"/>
			
				<use xlink:href="#smallstars"  width="122" height="114.2" x="-61" y="-57.1" transform="matrix(4.371139e-08 -1 -1 -4.371139e-08 397.0155 391.6492)" overflow="visible"/>
			
				<use xlink:href="#smallstars"  width="122" height="114.2" x="-61" y="-57.1" transform="matrix(-4.371139e-08 1 1 4.371139e-08 435.0183 396.9121)" overflow="visible"/>
			
				<use xlink:href="#smallstars"  width="122" height="114.2" x="-61" y="-57.1" transform="matrix(-0.7071 0.7071 0.7071 0.7071 485.21 440.9875)" overflow="visible"/>
			
				<use xlink:href="#smallstars"  width="122" height="114.2" x="-61" y="-57.1" transform="matrix(-0.8 0.6 0.6 0.8 555.2195 501.3289)" overflow="visible"/>
			
				<use xlink:href="#smallstars"  width="122" height="114.2" x="-61" y="-57.1" transform="matrix(4.371139e-08 -1 -1 -4.371139e-08 420.0451 467.8409)" overflow="visible"/>
			
				<use xlink:href="#smallstars"  width="122" height="114.2" x="-61" y="-57.1" transform="matrix(0.6402 -0.7682 -0.7682 -0.6402 318.0154 356.9636)" overflow="visible"/>
			
				<use xlink:href="#smallstars"  width="122" height="114.2" x="-61" y="-57.1" transform="matrix(0.3162 0.9487 0.9487 -0.3162 461.7564 325.0284)" overflow="visible"/>
			
				<use xlink:href="#smallstars"  width="122" height="114.2" x="-61" y="-57.1" transform="matrix(-0.1789 0.9839 0.9839 0.1789 1087.8282 443.3444)" overflow="visible"/>
			
				<use xlink:href="#smallstars"  width="122" height="114.2" x="-61" y="-57.1" transform="matrix(-0.7071 0.7071 0.7071 0.7071 1255.3835 610.9405)" overflow="visible"/>
			
				<use xlink:href="#star"  width="139.1" height="119.4" x="-69.6" y="-59.7" transform="matrix(-0.7071 -0.7071 -0.7071 0.7071 457.3376 491.9879)" overflow="visible"/>
			
				<use xlink:href="#star"  width="139.1" height="119.4" x="-69.6" y="-59.7" transform="matrix(-0.9648 0.2631 0.2631 0.9648 539.4159 716.3615)" overflow="visible"/>
			
				<use xlink:href="#star"  width="139.1" height="119.4" x="-69.6" y="-59.7" transform="matrix(-0.9578 0.2873 0.2873 0.9578 609.2336 872.6069)" overflow="visible"/>
			
				<use xlink:href="#star"  width="139.1" height="119.4" x="-69.6" y="-59.7" transform="matrix(-0.8321 0.5547 0.5547 0.8321 674.806 903.9136)" overflow="visible"/>
			
				<use xlink:href="#star"  width="139.1" height="119.4" x="-69.6" y="-59.7" transform="matrix(0.9222 0.3867 0.3867 -0.9222 827.9229 607.2457)" overflow="visible"/>
			
				<use xlink:href="#star"  width="139.1" height="119.4" x="-69.6" y="-59.7" transform="matrix(0.7071 -0.7071 -0.7071 -0.7071 772.1451 575.0505)" overflow="visible"/>
			
				<use xlink:href="#star"  width="139.1" height="119.4" x="-69.6" y="-59.7" transform="matrix(0.7474 -0.6644 -0.6644 -0.7474 652.684 508.9581)" overflow="visible"/>
			
				<use xlink:href="#star"  width="139.1" height="119.4" x="-69.6" y="-59.7" transform="matrix(0.4856 -0.8742 -0.8742 -0.4856 534.4918 442.0277)" overflow="visible"/>
			
				<use xlink:href="#star"  width="139.1" height="119.4" x="-69.6" y="-59.7" transform="matrix(-0.9487 -0.3162 -0.3162 0.9487 511.1564 519.4814)" overflow="visible"/>
			
				<use xlink:href="#star"  width="139.1" height="119.4" x="-69.6" y="-59.7" transform="matrix(-0.9778 -0.2095 -0.2095 0.9778 467.1361 641.7136)" overflow="visible"/>
			
				<use xlink:href="#star"  width="139.1" height="119.4" x="-69.6" y="-59.7" transform="matrix(-0.9975 -7.124709e-02 -7.124709e-02 0.9975 456.9919 775.0236)" overflow="visible"/>
			
				<use xlink:href="#star"  width="139.1" height="119.4" x="-69.6" y="-59.7" transform="matrix(-1 0 0 1 506.6631 898.2305)" overflow="visible"/>
			
				<use xlink:href="#star"  width="139.1" height="119.4" x="-69.6" y="-59.7" transform="matrix(-1 0 0 1 499.6744 998.8674)" overflow="visible"/>
			
				<use xlink:href="#star"  width="139.1" height="119.4" x="-69.6" y="-59.7" transform="matrix(-0.8838 -0.4679 -0.4679 0.8838 459.3803 1109.3839)" overflow="visible"/>
			
				<use xlink:href="#star"  width="139.1" height="119.4" x="-69.6" y="-59.7" transform="matrix(-0.7593 -0.6508 -0.6508 0.7593 383.1029 1188.1981)" overflow="visible"/>
			
				<use xlink:href="#star"  width="139.1" height="119.4" x="-69.6" y="-59.7" transform="matrix(-0.8805 -0.4741 -0.4741 0.8805 343.0934 1283.6848)" overflow="visible"/>
			
				<use xlink:href="#star"  width="139.1" height="119.4" x="-69.6" y="-59.7" transform="matrix(-0.8682 0.4961 0.4961 0.8682 348.3715 214.2525)" overflow="visible"/>
			
				<use xlink:href="#star"  width="139.1" height="119.4" x="-69.6" y="-59.7" transform="matrix(-0.1961 0.9806 0.9806 0.1961 542.9366 316.0206)" overflow="visible"/>
			
				<use xlink:href="#star"  width="139.1" height="119.4" x="-69.6" y="-59.7" transform="matrix(-0.7071 0.7071 0.7071 0.7071 759.1857 436.2556)" overflow="visible"/>
			
				<use xlink:href="#star"  width="139.1" height="119.4" x="-69.6" y="-59.7" transform="matrix(-0.5692 0.8222 0.8222 0.5692 873.2015 503.1345)" overflow="visible"/>
			
				<use xlink:href="#star"  width="139.1" height="119.4" x="-69.6" y="-59.7" transform="matrix(-0.3846 0.9231 0.9231 0.3846 1085.5396 564.3901)" overflow="visible"/>
			
				<use xlink:href="#star"  width="139.1" height="119.4" x="-69.6" y="-59.7" transform="matrix(-9.053579e-02 0.9959 0.9959 9.053579e-02 1166.2052 579.4619)" overflow="visible"/>
			
				<use xlink:href="#star"  width="139.1" height="119.4" x="-69.6" y="-59.7" transform="matrix(0.9487 -0.3162 -0.3162 -0.9487 1166.3785 529.4464)" overflow="visible"/>
			
				<use xlink:href="#star"  width="139.1" height="119.4" x="-69.6" y="-59.7" transform="matrix(0.2873 -0.9578 -0.9578 -0.2873 1002.1724 507.1099)" overflow="visible"/>
			
				<use xlink:href="#star"  width="139.1" height="119.4" x="-69.6" y="-59.7" transform="matrix(0.3344 -0.9424 -0.9424 -0.3344 668.5535 429.6364)" overflow="visible"/>
			
				<use xlink:href="#star"  width="139.1" height="119.4" x="-69.6" y="-59.7" transform="matrix(0.9884 -0.1521 -0.1521 -0.9884 586.553 282.9601)" overflow="visible"/>
			
				<use xlink:href="#star"  width="139.1" height="119.4" x="-69.6" y="-59.7" transform="matrix(0.3714 -0.9285 -0.9285 -0.3714 494.3357 230.4303)" overflow="visible"/>
			
				<use xlink:href="#star"  width="139.1" height="119.4" x="-69.6" y="-59.7" transform="matrix(-0.6644 -0.7474 -0.7474 0.6644 436.7544 287.4016)" overflow="visible"/>
			
				<use xlink:href="#star"  width="139.1" height="119.4" x="-69.6" y="-59.7" transform="matrix(4.371139e-08 -1 -1 -4.371139e-08 393.2053 303.6964)" overflow="visible"/>
			
				<use xlink:href="#star"  width="139.1" height="119.4" x="-69.6" y="-59.7" transform="matrix(4.993757e-02 0.9988 0.9988 -4.993757e-02 655.7449 360.3163)" overflow="visible"/>
			
				<use xlink:href="#star"  width="139.1" height="119.4" x="-69.6" y="-59.7" transform="matrix(-0.9848 -0.1738 -0.1738 0.9848 683.2817 -297.6056)" overflow="visible"/>
			
				<use xlink:href="#star"  width="139.1" height="119.4" x="-69.6" y="-59.7" transform="matrix(-0.9963 8.540110e-02 8.540110e-02 0.9963 818.6494 192.3063)" overflow="visible"/>
			
				<use xlink:href="#star"  width="139.1" height="119.4" x="-69.6" y="-59.7" transform="matrix(-0.8944 0.4472 0.4472 0.8944 945.3308 346.8248)" overflow="visible"/>
			
				<use xlink:href="#star"  width="139.1" height="119.4" x="-69.6" y="-59.7" transform="matrix(-0.9247 -0.3807 -0.3807 0.9247 841.9083 459.7754)" overflow="visible"/>
			
				<use xlink:href="#star"  width="139.1" height="119.4" x="-69.6" y="-59.7" transform="matrix(-0.8192 -0.5735 -0.5735 0.8192 627.4576 745.4105)" overflow="visible"/>
			
				<use xlink:href="#star"  width="139.1" height="119.4" x="-69.6" y="-59.7" transform="matrix(-0.988 -0.1544 -0.1544 0.988 550.0068 969.9506)" overflow="visible"/>
			
				<use xlink:href="#star"  width="139.1" height="119.4" x="-69.6" y="-59.7" transform="matrix(-0.8908 -0.4545 -0.4545 0.8908 419.9567 1304.0574)" overflow="visible"/>
			
				<use xlink:href="#star"  width="139.1" height="119.4" x="-69.6" y="-59.7" transform="matrix(-0.8321 -0.5547 -0.5547 0.8321 384.2236 1336.53)" overflow="visible"/>
			
				<use xlink:href="#star"  width="139.1" height="119.4" x="-69.6" y="-59.7" transform="matrix(0.9374 0.3482 0.3482 -0.9374 431.4232 1069.4417)" overflow="visible"/>
			
				<use xlink:href="#star"  width="139.1" height="119.4" x="-69.6" y="-59.7" transform="matrix(0.9775 0.2108 0.2108 -0.9775 458.6302 716.385)" overflow="visible"/>
			
				<use xlink:href="#star"  width="139.1" height="119.4" x="-69.6" y="-59.7" transform="matrix(0.9701 0.2425 0.2425 -0.9701 542.0928 237.2485)" overflow="visible"/>
			
				<use xlink:href="#star"  width="139.1" height="119.4" x="-69.6" y="-59.7" transform="matrix(0.9756 0.2195 0.2195 -0.9756 568.8269 -197.6073)" overflow="visible"/>
			
				<use xlink:href="#star"  width="139.1" height="119.4" x="-69.6" y="-59.7" transform="matrix(0.9578 0.2873 0.2873 -0.9578 654.3669 -337.7573)" overflow="visible"/>
			
				<use xlink:href="#star"  width="139.1" height="119.4" x="-69.6" y="-59.7" transform="matrix(-0.9567 -0.2912 -0.2912 0.9567 518.4899 -37.1848)" overflow="visible"/>
			
				<use xlink:href="#star"  width="139.1" height="119.4" x="-69.6" y="-59.7" transform="matrix(-0.9942 -0.1075 -0.1075 0.9942 590.0913 354.4734)" overflow="visible"/>
			
				<use xlink:href="#star"  width="139.1" height="119.4" x="-69.6" y="-59.7" transform="matrix(-0.9816 -0.1909 -0.1909 0.9816 590.6339 681.1414)" overflow="visible"/>
			
				<use xlink:href="#star"  width="139.1" height="119.4" x="-69.6" y="-59.7" transform="matrix(-0.9687 -0.2484 -0.2484 0.9687 480.2718 1273.4867)" overflow="visible"/>
			
				<use xlink:href="#star"  width="139.1" height="119.4" x="-69.6" y="-59.7" transform="matrix(-0.9302 -0.3672 -0.3672 0.9302 367.9697 1500.2153)" overflow="visible"/>
		</g>
	</g>
	<g id="mountains">
	</g>
	<g id="foretrees">
		<g>
			<polygon fill="#708090" points=""/>
			<path fill="#FDF5E6" d=""/>
		</g>
		<g>
			<polygon fill="#708090" points=""/>
			<g>
				<path fill="#FDF5E6" d=""/>
			</g>
		</g>
			"/>
		</g>	
	</g>
</g> <!-- group end of total svg -->
<style type="text/css" media="screen">  
	<![CDATA[  
	#mountains,
	#tinyhouse
	#light{  
		transition: .5s;  
		-webkit-transition: .5s;  
		-moz-transition: .5s;  
		-ms-transition: .5s;  
		-o-transition: .5s;  
	}  
	#mountains:hover polygon { 
	}  
	
	#tinyhouse:hover #light {
		fill: #FBAE17;
	}
	
	.mountain3:hover polygon{
		fill: red;
	}
	]]>  
</style>

</svg>
